<svg width="1920" height="1110" viewBox="0 0 1920 1110" fill="none" xmlns="http://www.w3.org/2000/svg">
<g clip-path="url(#clip0_4105_52966)">
<path d="M1820.06 1735.22C1577.29 1594.71 1397.79 1414.01 1266.18 1213.25C496.991 785.547 289.087 -68.4861 248.699 -278.469L-1338.9 1015.86L913.562 2410.77L1820.06 1735.22Z" fill="#606FC9"/>
<path d="M1266.18 1213.25C699.695 348.74 1022.8 -888 1022.8 -888L248.699 -278.469C289.087 -68.4862 496.991 785.547 1266.18 1213.25Z" fill="#97A5F9"/>
<path d="M1820.07 1735.21L2192.21 1457.89C1817.16 1443.71 1512.82 1350.39 1266.18 1213.25C1397.79 1414.09 1577.32 1594.74 1820.07 1735.21Z" fill="#FF9800"/>
<rect x="-129.781" y="1119.46" width="695.279" height="824.946" transform="rotate(-9.59049 -129.781 1119.46)" fill="#606FC9"/>
</g>
<defs>
<clipPath id="clip0_4105_52966">
<rect width="1920" height="1110" fill="white"/>
</clipPath>
</defs>
</svg>
