<svg width="24" height="24" viewBox="0 0 24 24" fill="none" xmlns="http://www.w3.org/2000/svg">
<path d="M1 12C1 5.9247 5.9236 1 12 1C18.0742 1 23 5.9247 23 12C23 18.0753 18.0742 23 12 23C5.9236 23 1 18.0753 1 12Z" fill="#0077FF"/>
<path d="M12.6252 16.8598C7.84193 16.8598 5.11368 13.5806 5 8.12402H7.396C7.4747 12.129 9.24106 13.8255 10.6402 14.1752V8.12402H12.8964V11.5781C14.278 11.4295 15.7294 9.85544 16.2191 8.12402H18.4752C18.0992 10.2577 16.5252 11.8317 15.4059 12.4788C16.5252 13.0035 18.3179 14.3764 19 16.8598H16.5165C15.983 15.1984 14.654 13.9129 12.8964 13.738V16.8598H12.6252Z" fill="white"/>
</svg>
