<svg width="24" height="24" viewBox="0 0 24 24" fill="none" xmlns="http://www.w3.org/2000/svg">
<path d="M1 12C1 5.9247 5.9236 1 12 1C18.0742 1 23 5.9247 23 12C23 18.0753 18.0742 23 12 23C5.9236 23 1 18.0753 1 12Z" fill="#FC3F1D"/>
<path d="M13.4482 7.23242H12.4318C10.5684 7.23242 9.58826 8.17622 9.58826 9.56772C9.58826 11.1407 10.2659 11.8777 11.6574 12.8226L12.8069 13.597L9.50356 18.5327H7.03516L9.99966 14.1173C8.29466 12.8952 7.33766 11.7083 7.33766 9.70082C7.33766 7.18402 9.09216 5.46582 12.4197 5.46582H15.723V18.5206H13.4482V7.23242Z" fill="white"/>
</svg>
