<svg width="24" height="24" viewBox="0 0 24 24" fill="none" xmlns="http://www.w3.org/2000/svg">
<path d="M1 12C1 5.9247 5.9236 1 12 1C18.0742 1 23 5.9247 23 12C23 18.0753 18.0742 23 12 23C5.9236 23 1 18.0753 1 12Z" fill="#005FF9"/>
<path d="M14.4063 12C14.4063 13.3269 13.3269 14.4063 12 14.4063C10.6731 14.4063 9.59371 13.3269 9.59371 12C9.59371 10.6731 10.6731 9.59371 12 9.59371C13.3269 9.59371 14.4063 10.6731 14.4063 12ZM12 4C7.58857 4 4 7.58857 4 12C4 16.4114 7.58857 20 12 20C13.616 20 15.1743 19.5189 16.5063 18.6086L16.5291 18.5926L15.4514 17.34L15.4331 17.3514C14.408 18.0114 13.2206 18.36 12 18.36C8.49314 18.36 5.64 15.5069 5.64 12C5.64 8.49314 8.49314 5.64 12 5.64C15.5069 5.64 18.36 8.49314 18.36 12C18.36 12.4543 18.3091 12.9143 18.2103 13.3669C18.0091 14.1926 17.4309 14.4451 16.9971 14.412C16.5606 14.3766 16.0497 14.0657 16.0463 13.3046V12.7246V12C16.0463 9.76857 14.2314 7.95371 12 7.95371C9.76857 7.95371 7.95371 9.76857 7.95371 12C7.95371 14.2314 9.76857 16.0463 12 16.0463C13.084 16.0463 14.1006 15.6229 14.8669 14.852C15.3126 15.5457 16.0389 15.9806 16.8657 16.0469C16.9366 16.0526 17.0091 16.0554 17.0806 16.0554C17.6629 16.0554 18.2394 15.8606 18.7046 15.508C19.184 15.1434 19.5423 14.6171 19.74 13.9846C19.7714 13.8823 19.8297 13.6486 19.8297 13.6469L19.8314 13.6383C19.948 13.1309 20 12.6251 20 12C20 7.58857 16.4114 4 12 4Z" fill="#FF9E00"/>
</svg>
