<svg width="183" height="44" viewBox="0 0 183 44" fill="none" xmlns="http://www.w3.org/2000/svg">
<rect width="183" height="44" rx="6.76924" fill="white"/>
<g clip-path="url(#clip0_970_4533)">
<path d="M24.2254 21.9546C23.7789 21.685 23.2996 21.4738 22.7993 21.3264C22.2779 21.1734 21.7565 21.0361 21.2351 20.9144C20.7137 20.7928 20.2375 20.6729 19.8065 20.5547C19.4329 20.4613 19.0795 20.3005 18.7637 20.0802C18.6386 19.9922 18.5371 19.8749 18.468 19.7386C18.3989 19.6022 18.3643 19.4509 18.3674 19.2981C18.3626 19.0363 18.4452 18.7804 18.602 18.5707C18.8057 18.3238 19.0778 18.1424 19.3841 18.0493C19.8297 17.9036 20.2973 17.8365 20.7659 17.8512C21.3486 17.854 21.9282 17.9355 22.4891 18.0936C23.1047 18.2671 23.696 18.5176 24.2488 18.8392L25.1457 16.6311C24.5197 16.244 23.8345 15.9621 23.1174 15.7968C22.3534 15.6116 21.5702 15.518 20.7841 15.5179C19.7739 15.4834 18.7677 15.661 17.8303 16.0393C17.1208 16.3338 16.5109 16.8261 16.0732 17.4575C15.6861 18.0395 15.4827 18.7243 15.4892 19.4232C15.4651 20.0013 15.6052 20.5743 15.8933 21.0761C16.1537 21.5011 16.5111 21.8585 16.9361 22.1189C17.3838 22.3908 17.8626 22.6079 18.3622 22.7654C18.8836 22.9323 19.405 23.0731 19.9264 23.1878C20.4478 23.3025 20.9223 23.4198 21.3524 23.5449C21.7256 23.6447 22.0785 23.8088 22.3952 24.0298C22.5214 24.1208 22.6233 24.2413 22.692 24.3809C22.7606 24.5204 22.7939 24.6747 22.7889 24.8302C22.7887 25.0868 22.6962 25.3348 22.5282 25.5289C22.3184 25.7593 22.047 25.9249 21.7461 26.006C21.294 26.1316 20.8256 26.1887 20.3565 26.1754C19.596 26.1745 18.8406 26.0504 18.1197 25.8078C17.4401 25.5892 16.7963 25.2721 16.2088 24.8667L15.2207 27.0566C15.8931 27.537 16.6476 27.8904 17.4471 28.0994C18.3864 28.3721 19.3602 28.5082 20.3383 28.5035C21.355 28.5372 22.3672 28.3542 23.3077 27.9664C24.0179 27.6671 24.6308 27.1761 25.0779 26.5482C25.4674 25.9767 25.6738 25.3002 25.6697 24.6086C25.6914 24.0374 25.5513 23.4717 25.2656 22.9766C25.0032 22.5596 24.647 22.2096 24.2254 21.9546Z" fill="#606FC9"/>
<path d="M36.6481 20.6994H30.9387V15.7461H28.0293V28.312H30.9387V23.1605H36.6481V28.312H39.555V15.7461H36.6481V20.6994Z" fill="#606FC9"/>
<path d="M46.844 15.7461L41.2441 28.312H44.224L45.3424 25.6189H51.1691L52.2823 28.312H55.3351L49.717 15.7461H46.844ZM46.2627 23.4108L48.2649 18.6008L50.2566 23.4108H46.2627Z" fill="#606FC9"/>
<path d="M65.3496 24.2713C66.1188 23.9478 66.7748 23.4034 67.2345 22.7071C67.6903 21.986 67.9217 21.1458 67.8993 20.293C67.9225 19.4311 67.6913 18.5814 67.2345 17.8502C66.7725 17.1559 66.1172 16.6121 65.3496 16.286C64.4302 15.9003 63.4395 15.7138 62.4428 15.7385H57.002V28.3122H59.9114V24.811H62.5784L64.9925 28.3122H68.1339L65.3262 24.2817L65.3496 24.2713ZM64.2912 18.6897C64.7172 19.1176 64.9564 19.6969 64.9564 20.3008C64.9564 20.9047 64.7172 21.484 64.2912 21.9119C63.848 22.3013 63.178 22.4959 62.2812 22.4959H59.9114V18.1161H62.2812C63.178 18.1161 63.848 18.3073 64.2912 18.6897Z" fill="#606FC9"/>
<path d="M74.1468 15.7461L68.5469 28.312H71.5267L72.6451 25.6189H78.4718L79.5876 28.312H82.6378L77.0197 15.7461H74.1468ZM73.5654 23.4108L75.565 18.6008L77.5568 23.4108H73.5654Z" fill="#606FC9"/>
<path d="M89.2602 24.7195L85.4383 15.7461H82.2969L87.7195 28.312H90.5898L96.0307 15.7461H93.1395L89.2602 24.7195Z" fill="#606FC9"/>
<path d="M107.965 17.3791C107.338 16.7859 106.6 16.3226 105.794 16.0157C104.026 15.3672 102.086 15.3672 100.319 16.0157C99.507 16.3229 98.7631 16.7861 98.1291 17.3791C97.5113 17.9612 97.0197 18.664 96.6848 19.4439C96.0035 21.0998 96.0035 22.9577 96.6848 24.6136C97.0178 25.3926 97.5066 26.0953 98.1212 26.6784C98.7527 27.2747 99.4974 27.7384 100.311 28.0419C101.192 28.3717 102.126 28.5361 103.067 28.5268C103.995 28.5362 104.918 28.3717 105.786 28.0419C106.591 27.7358 107.328 27.2762 107.958 26.6888C108.575 26.1059 109.067 25.4034 109.404 24.6241C109.758 23.8009 109.936 22.9129 109.926 22.017C109.939 21.1478 109.771 20.2853 109.433 19.4845C109.095 18.6837 108.593 17.9623 107.96 17.3661L107.965 17.3791ZM106.691 23.6621C106.503 24.14 106.219 24.5741 105.856 24.9369C105.502 25.2947 105.078 25.576 104.61 25.7633C104.112 25.9594 103.581 26.0568 103.046 26.0501C102.511 26.0553 101.98 25.9579 101.482 25.7633C101.012 25.5786 100.587 25.2971 100.233 24.9369C99.8749 24.5691 99.5948 24.1328 99.4091 23.6543C99.0128 22.6042 99.0128 21.4456 99.4091 20.3955C99.5958 19.9219 99.877 19.4913 100.236 19.1301C100.594 18.7688 101.023 18.4844 101.495 18.2942C101.993 18.0982 102.524 18.0008 103.059 18.0074C103.594 18.0018 104.125 18.0992 104.623 18.2942C105.092 18.4799 105.518 18.7613 105.872 19.1206C106.229 19.4865 106.509 19.9199 106.696 20.3955C107.092 21.4483 107.092 22.6092 106.696 23.6621H106.691Z" fill="#606FC9"/>
<path d="M114.803 25.9422L121.68 17.631V15.7461H111.106V18.1159H117.858L110.963 26.4271V28.312H121.952V25.9422H114.803Z" fill="#606FC9"/>
<path d="M143.29 19.7076C142.889 19.4126 142.395 19.2711 141.898 19.3087H140.256V22.3302H141.898C142.395 22.3678 142.889 22.2263 143.29 21.9314C143.445 21.7935 143.567 21.6225 143.646 21.4311C143.726 21.2397 143.761 21.0329 143.749 20.826C143.762 20.6171 143.727 20.4081 143.647 20.2145C143.568 20.0209 143.446 19.8476 143.29 19.7076Z" fill="url(#paint0_linear_970_4533)"/>
<path d="M166.982 15.8182C166.863 15.25 166.633 14.7111 166.304 14.233C165.975 13.755 165.554 13.3473 165.066 13.0339L159.278 26.3819H157.289L153.535 17.6797H155.712L158.358 23.8948L163.34 12.4108C158.934 11.7747 153.694 11.7773 147.757 11.7773C141.821 11.7773 136.547 11.7773 132.115 12.4187C131.24 12.5525 130.427 12.9513 129.785 13.5614C129.143 14.1716 128.703 14.9638 128.525 15.8313C127.783 19.8819 127.783 24.0337 128.525 28.0843C128.704 28.9516 129.143 29.7436 129.785 30.3537C130.427 30.9638 131.24 31.3627 132.115 31.4969C136.534 32.1408 141.798 32.2946 147.757 32.2946C153.717 32.2946 158.968 32.1408 163.4 31.4969C164.275 31.363 165.088 30.964 165.729 30.3539C166.371 29.7437 166.809 28.9516 166.987 28.0843C167.733 24.034 167.733 19.8816 166.987 15.8313L166.982 15.8182ZM135.601 26.3819H133.588V17.6797H135.601V26.3819ZM145.325 22.5157C145.007 22.998 144.553 23.376 144.022 23.6028C143.385 23.8697 142.699 23.9985 142.009 23.9808H140.254V26.3819H138.242V17.6797H142.009C142.699 17.662 143.385 17.7908 144.022 18.0577C144.553 18.2844 145.007 18.6625 145.325 19.1448C145.626 19.6556 145.784 20.2375 145.784 20.8302C145.784 21.4229 145.626 22.0048 145.325 22.5157ZM151.061 19.3195V26.3819H149.045V19.3195H146.261V17.6797H153.039L153.741 19.3195H151.061Z" fill="url(#paint1_linear_970_4533)"/>
</g>
<defs>
<linearGradient id="paint0_linear_970_4533" x1="127.158" y1="20.826" x2="165.86" y2="20.826" gradientUnits="userSpaceOnUse">
<stop stop-color="#FCA32A"/>
<stop offset="1" stop-color="#FC7425"/>
</linearGradient>
<linearGradient id="paint1_linear_970_4533" x1="127.159" y1="22.0308" x2="165.861" y2="22.0308" gradientUnits="userSpaceOnUse">
<stop stop-color="#FCA32A"/>
<stop offset="1" stop-color="#FC7425"/>
</linearGradient>
<clipPath id="clip0_970_4533">
<rect width="152.308" height="20.5329" fill="white" transform="translate(15.2305 11.7617)"/>
</clipPath>
</defs>
</svg>
