<svg width="75" height="20" viewBox="0 0 75 20" fill="none" xmlns="http://www.w3.org/2000/svg">
<g clip-path="url(#clip0_867_12931)">
<path d="M50.4224 10.1143H49.0586C48.7419 9.29822 48.4258 8.48219 48.1066 7.66H43.9543C43.6385 8.47363 43.3214 9.29069 43.0028 10.1112H40.2061C38.814 8.43462 37.4081 6.74097 35.9884 5.03021C35.9884 5.26527 35.9884 5.47056 35.9884 5.67534V10.0968C35.8855 10.123 34.9 10.1302 34.724 10.1086C34.6977 10.0193 34.6859 0.338278 34.7116 0.109891C34.8017 0.082177 35.7048 0.0713971 35.9653 0.0950057L35.9745 0.104247C35.9774 0.107147 35.9798 0.110429 35.9818 0.113998C35.9835 0.117937 35.9847 0.122075 35.9854 0.126315C35.9856 0.130417 35.9856 0.13453 35.9854 0.138632C35.9854 0.147357 35.9854 0.156082 35.9854 0.164293V0.189955C35.9854 1.77207 35.9854 3.35452 35.9854 4.93732C35.9856 4.94578 35.9867 4.95419 35.9884 4.96247C35.9926 4.97112 35.9972 4.97952 36.0023 4.98761L39.888 0.0919264H41.3733C41.3763 0.0965163 41.3788 0.101322 41.381 0.106298C41.381 0.110404 41.3836 0.116049 41.381 0.118615L37.4228 5.02354L41.6663 10.0398C42.9362 6.71754 44.2031 3.40311 45.4669 0.0965468H46.5919L50.4224 10.1143ZM46.0425 2.19925C45.9828 2.27828 44.4007 6.39899 44.3816 6.52063C44.603 6.54526 47.5995 6.53551 47.6937 6.50831L46.0425 2.19925Z" fill="black"/>
<path d="M8.63086 0.0957031H8.7673C9.94271 0.0957031 11.1181 0.0957031 12.293 0.0957031C12.7914 0.0957031 13.2713 0.180387 13.7223 0.41134C14.0356 0.571265 14.3194 0.783174 14.5615 1.03799C14.7306 1.20783 14.8786 1.39738 15.0022 1.60254C15.1945 1.92213 15.3184 2.27788 15.3662 2.64748C15.4099 2.97828 15.3984 3.31401 15.3322 3.64109C15.2811 3.85277 15.2141 4.06035 15.1319 4.26209C15.0224 4.54645 14.8544 4.80482 14.6387 5.02064C14.5354 5.12314 14.4242 5.21735 14.3061 5.30241C14.1513 5.41724 13.9902 5.52346 13.8237 5.62061C13.6915 5.69054 13.5551 5.75242 13.4154 5.80589C13.3413 5.83719 13.261 5.86131 13.1693 5.89467C13.9884 7.29887 14.8014 8.69279 15.6149 10.0883C15.5191 10.1175 14.4657 10.1283 14.2011 10.1026C13.4072 8.73129 12.61 7.35378 11.8096 5.97012H9.88556C9.88196 6.14461 9.88556 6.31398 9.88556 6.48335C9.88556 6.65271 9.88556 6.83388 9.88556 7.0094V10.1047H8.63086V0.0957031ZM9.89174 4.86C9.94323 4.86 9.9803 4.86513 10.0179 4.86513H12.3862C12.4422 4.86655 12.4982 4.86484 12.5541 4.86C12.7962 4.83637 13.0303 4.76027 13.2399 4.63705C13.4495 4.51383 13.6296 4.34645 13.7676 4.14662C14.1161 3.66315 14.216 3.12427 14.0667 2.54021C13.8994 1.88585 13.2151 1.17605 12.3162 1.19093C11.5537 1.20325 10.7902 1.19093 10.0271 1.19401C9.98544 1.19401 9.94374 1.1976 9.89431 1.20017L9.89174 4.86Z" fill="#E8634F"/>
<path d="M74.9997 10.1186C74.5363 10.1186 74.0915 10.1186 73.6384 10.1186L72.6844 7.65925H68.53C68.2139 8.47272 67.8957 9.29183 67.5781 10.1104H66.2168C67.4964 6.76213 68.7725 3.42323 70.0453 0.09375H71.1687L74.9997 10.1186ZM72.2756 6.52604C71.7196 5.07412 71.1702 3.63657 70.5936 2.20363C70.0444 3.64067 69.4926 5.08147 68.9383 6.52604H72.2756Z" fill="black"/>
<path d="M18.7451 1.19248V4.39707H23.439V5.49641H18.7724L18.7507 5.5195C18.7507 5.52258 18.744 5.52617 18.7435 5.52976C18.7402 5.54669 18.7381 5.56385 18.7374 5.58109C18.7374 6.69684 18.7374 7.81295 18.7374 8.92939C18.7383 8.94424 18.7404 8.95899 18.7435 8.97353C18.7502 8.98174 18.7528 8.98533 18.7559 8.98841C18.759 8.99124 18.7627 8.99334 18.7667 8.99457C18.7748 8.99718 18.783 8.99907 18.7914 9.00021C18.8043 9.00098 18.8172 9.00098 18.83 9.00021L23.9786 9.00432C23.9827 9.00432 23.9863 9.0074 23.9904 9.00894C24.0136 9.10389 24.0218 9.826 24.0028 10.0929L23.9935 10.1021C23.9904 10.1021 23.9868 10.1088 23.9832 10.1088L17.5743 10.1139C17.5491 10.1139 17.5228 10.1108 17.5007 10.1093C17.4734 10.0113 17.461 0.380031 17.4868 0.117772L17.4955 0.109048C17.4991 0.105968 17.5022 0.101348 17.5058 0.101348L23.7088 0.0957031H23.8494C23.8586 0.460609 23.8524 0.817303 23.854 1.19042C23.5615 1.19658 23.2799 1.19042 22.9988 1.1935H18.7451V1.19248Z" fill="#E8634F"/>
<path d="M32.4551 0.103617V1.18653C32.3964 1.18653 32.3423 1.19269 32.2883 1.1932H27.3673V4.3901C27.4162 4.39267 27.4656 4.39677 27.515 4.39677H32.0617V5.49508H27.3832C27.3529 5.59773 27.342 8.76024 27.3673 8.97631L27.376 8.98606C27.3789 8.98904 27.3824 8.99132 27.3863 8.99273C27.3943 8.99543 27.4026 8.99715 27.411 8.99787C27.4239 8.99863 27.4368 8.99863 27.4497 8.99787L32.5982 9.00094C32.6023 9.00094 32.6064 9.00095 32.6265 9.00711C32.6378 9.36637 32.6296 9.73281 32.6312 10.1044H26.1074V0.101562L32.4551 0.103617Z" fill="#E8634F"/>
<path d="M57.5121 3.02785H56.2471C56.2383 2.94933 56.227 2.86978 56.2208 2.79074C56.1575 1.97522 55.5387 1.26132 54.7133 1.15611C53.888 1.0509 53.1801 1.26954 52.6642 1.95572C52.4655 2.22836 52.3792 2.56656 52.4231 2.90071C52.4669 3.23486 52.6376 3.53954 52.9 3.75202C53.2762 4.03725 53.6989 4.25567 54.1496 4.39766C54.6773 4.5737 55.2086 4.73998 55.7379 4.91089C56.3517 5.10456 56.892 5.4793 57.2876 5.98559C57.4968 6.25291 57.6381 6.56668 57.6995 6.90016C57.8025 7.42776 57.7829 7.9451 57.5605 8.44498C57.3437 8.93306 56.9942 9.30669 56.557 9.60385C56.1174 9.89797 55.6139 10.0839 55.0882 10.1463C54.6844 10.2033 54.2751 10.211 53.8695 10.1694C53.073 10.0812 52.3677 9.79734 51.8101 9.20302C51.4276 8.79906 51.1784 8.28809 51.096 7.73878C51.0738 7.59969 51.0635 7.45856 51.0507 7.31793C51.0465 7.27277 51.0507 7.22657 51.0507 7.17371H52.3234C52.3347 7.29124 52.344 7.40518 52.3574 7.5186C52.4042 7.9066 52.5432 8.25457 52.8207 8.53993C53.024 8.74436 53.2784 8.89105 53.5575 8.96488C53.9591 9.0819 54.3679 9.08959 54.7813 9.05213C55.1162 9.02901 55.441 8.9285 55.7302 8.75856C56.0602 8.55892 56.3084 8.2869 56.4155 7.91019C56.5797 7.33384 56.4319 6.77442 55.8893 6.38488C55.5093 6.11994 55.0894 5.91706 54.6454 5.78389C54.0538 5.59554 53.4612 5.4041 52.881 5.18906C52.3754 4.99976 51.933 4.67339 51.6036 4.24677C51.3871 3.96858 51.2439 3.64074 51.1871 3.29319C51.1238 2.93393 51.1006 2.57467 51.1871 2.21131C51.3081 1.70835 51.5846 1.2993 51.9532 0.945172C52.3452 0.557787 52.8326 0.280219 53.3665 0.14043C54.1902 -0.0694801 55.014 -0.0756402 55.7863 0.31544C56.6827 0.769134 57.2763 1.47893 57.4678 2.48486C57.4951 2.62702 57.4977 2.77381 57.5105 2.91803C57.5147 2.95241 57.5121 2.98577 57.5121 3.02785Z" fill="black"/>
<path d="M65.4084 3.02944H64.1485C64.1305 2.88727 64.1197 2.75127 64.097 2.61886C63.9606 1.85928 63.3979 1.27215 62.6318 1.16283C61.808 1.0453 61.0913 1.26548 60.5693 1.95474C60.1435 2.51621 60.2722 3.3461 60.8102 3.75925C61.1832 4.0398 61.6009 4.25565 62.0459 4.39771C62.5741 4.57375 63.1054 4.74054 63.6347 4.91094C64.2452 5.10236 64.7835 5.47298 65.1793 5.97434C65.3981 6.2507 65.5451 6.57668 65.6071 6.9233C65.725 7.54893 65.6648 8.15043 65.3312 8.70574C65.0844 9.10937 64.7417 9.44622 64.3334 9.68653C63.9246 9.93243 63.4685 10.0898 62.9947 10.1484C62.5912 10.2057 62.1821 10.2138 61.7766 10.1726C61.1788 10.1063 60.6187 9.93339 60.1291 9.57259C59.4963 9.10555 59.1096 8.4866 58.9964 7.70598C58.9789 7.58331 58.967 7.46014 58.9552 7.33697C58.9506 7.28565 58.9552 7.23432 58.9552 7.17787H60.2279C60.2397 7.30002 60.247 7.42268 60.2639 7.5438C60.3386 8.06319 60.5595 8.49532 61.0218 8.77863C61.2472 8.91225 61.4972 8.9995 61.757 9.03524C62.1984 9.1077 62.65 9.09113 63.0848 8.98649C63.4861 8.89638 63.8439 8.67084 64.0976 8.34803C64.4801 7.85841 64.5635 6.92895 63.7943 6.38852C63.4097 6.12317 62.9858 5.91935 62.5381 5.78445C61.9789 5.60842 61.4229 5.42057 60.8689 5.22709C60.3775 5.05206 59.9394 4.7541 59.5967 4.36178C59.3314 4.06167 59.1557 3.69345 59.0896 3.29888C59.001 2.81491 59.0041 2.33864 59.1987 1.87622C59.3547 1.51825 59.5841 1.19676 59.8721 0.932389C60.2669 0.54788 60.7563 0.273855 61.2911 0.137912C62.1179 -0.0673793 62.9412 -0.0673787 63.7109 0.327807C64.598 0.785094 65.187 1.4954 65.3754 2.49671C65.4109 2.67194 65.4219 2.8512 65.4084 3.02944Z" fill="black"/>
<path d="M0.652499 0.103516H6.76229V1.18745C6.43947 1.19977 6.11975 1.19105 5.80002 1.19259C5.4803 1.19413 5.15645 1.19259 4.83467 1.19259H1.935C1.92419 1.20388 1.92059 1.20644 1.91801 1.20952C1.91544 1.2126 1.9108 1.21619 1.9108 1.21978C1.9108 1.26238 1.90411 1.30498 1.90411 1.34758C1.90411 2.4038 1.90583 3.45986 1.90926 4.51574C1.90926 4.52344 1.91647 4.53062 1.92883 4.55269H5.88549V5.65152H1.90514C1.90514 6.03644 1.90514 6.40699 1.90514 6.78062C1.90514 7.15425 1.90514 7.51608 1.90514 7.88355V10.1079H0.661251C0.638083 10.0083 0.628815 0.312913 0.652499 0.103516Z" fill="#E8634F"/>
<path d="M16.4556 18.3986V18.2477C16.4556 17.444 16.4556 16.6399 16.4556 15.8355C16.4634 15.6431 16.436 15.451 16.3747 15.2684C16.3115 15.104 16.2084 14.9578 16.0746 14.8429C15.8171 14.6156 15.3939 14.651 15.1926 14.7726C15.0491 14.8558 14.9268 14.9709 14.8354 15.109C14.7439 15.2471 14.6857 15.4044 14.6654 15.5686C14.65 15.6783 14.6426 15.7889 14.6433 15.8997C14.6433 16.6823 14.6433 17.4645 14.6433 18.2472V18.3837C14.5403 18.4109 14.0872 18.4155 13.9395 18.3919V14.0808C14.1073 14.0638 14.2726 14.0756 14.4543 14.072L14.6536 14.5463C14.9707 14.1552 15.3744 13.9853 15.8588 14.03C16.3433 14.0746 16.6986 14.341 16.94 14.7849C16.9745 14.7336 17.0008 14.6997 17.026 14.6628C17.1384 14.4922 17.2864 14.348 17.46 14.2398C17.6336 14.1316 17.8285 14.0622 18.0315 14.0361C18.5196 13.9648 18.9356 14.1244 19.2636 14.498C19.4807 14.7462 19.6186 15.0534 19.6595 15.3803C19.6792 15.5324 19.6892 15.6857 19.6894 15.8391C19.6924 16.6474 19.6894 17.4552 19.6894 18.2636C19.6894 18.3052 19.6858 18.3467 19.6837 18.3965H19.0005C19.0005 18.3452 18.9943 18.2939 18.9943 18.2466C18.9943 17.464 18.9943 16.6818 18.9917 15.8991C18.9902 15.7371 18.9742 15.5754 18.9438 15.4162C18.8965 15.184 18.7689 14.9757 18.5834 14.8275C18.3415 14.6222 17.8802 14.6366 17.632 14.8224C17.5139 14.9083 17.4143 15.0169 17.339 15.1418C17.2638 15.2667 17.2144 15.4054 17.1939 15.5496C17.1774 15.6637 17.1696 15.7788 17.1707 15.894C17.1707 16.6762 17.1707 17.4588 17.1707 18.241V18.395L16.4556 18.3986Z" fill="#888888"/>
<path d="M61.0549 18.398H60.3733C60.3733 18.3467 60.3676 18.2954 60.3671 18.244C60.3671 17.4532 60.3702 16.6618 60.3671 15.8709C60.3671 15.6189 60.3475 15.3653 60.2167 15.1385C60.0932 14.924 59.932 14.7443 59.6787 14.6951C59.3312 14.6273 59.0351 14.7274 58.8071 15.0066C58.6166 15.2396 58.544 15.5121 58.5435 15.8057C58.5409 16.614 58.5435 17.4224 58.5435 18.2302V18.4001C58.3102 18.4067 58.0863 18.4052 57.8453 18.4001V18.2374C57.8453 17.4634 57.8453 16.6895 57.8453 15.9155C57.8514 15.7189 57.8283 15.5224 57.7768 15.3325C57.7185 15.1292 57.5957 14.9502 57.4267 14.8224C57.1626 14.6258 56.8717 14.6232 56.5896 14.7654C56.273 14.9245 56.1077 15.2057 56.0459 15.547C56.0283 15.6565 56.0202 15.7672 56.0217 15.8781C56.0217 16.6654 56.0217 17.4521 56.0217 18.2389V18.3929H55.3297C55.3055 18.3 55.2973 14.2727 55.32 14.0874C55.4065 14.0587 55.6551 14.0525 55.8394 14.0766C55.8987 14.2183 55.9599 14.3671 56.0284 14.5308C56.1973 14.3681 56.3491 14.2029 56.5669 14.1203C56.7794 14.0363 57.0082 14.0012 57.2362 14.0176C57.4658 14.0412 57.6853 14.1234 57.8736 14.2563C58.0619 14.3892 58.2127 14.5682 58.3113 14.7762C58.3828 14.6843 58.44 14.6073 58.5012 14.5339C58.6302 14.3758 58.7921 14.2476 58.9758 14.1583C59.1595 14.069 59.3606 14.0206 59.5649 14.0166C60.1246 13.9909 60.5215 14.2614 60.8093 14.7146C60.977 14.9806 61.0662 15.2883 61.0668 15.6025C61.074 16.5047 61.0719 17.407 61.0729 18.3097C61.0688 18.3395 61.0628 18.369 61.0549 18.398Z" fill="#888888"/>
<path d="M0.713606 17.9157V19.9239C0.619388 19.9547 0.194117 19.9624 0.020096 19.9388C-0.00513187 19.8428 -0.008221 14.2117 0.020096 14.0798C0.0422348 14.0772 0.0669478 14.0716 0.0916609 14.0711H0.521565L0.71618 14.5397C0.787686 14.4722 0.863905 14.41 0.944261 14.3534C1.20646 14.1896 1.49935 14.0808 1.8051 14.0336C1.95018 14.0174 2.09662 14.0174 2.2417 14.0336C2.59428 14.0624 2.93072 14.1934 3.20963 14.4103C3.6312 14.7285 3.91764 15.1928 4.01228 15.7114C4.09928 16.1358 4.07982 16.5751 3.95565 16.9903C3.77803 17.5708 3.41866 18.0091 2.86879 18.2734C2.56727 18.4218 2.22957 18.4817 1.8952 18.4458C1.64778 18.4223 1.4066 18.3547 1.18315 18.2462C1.05252 18.1806 0.933696 18.0939 0.831508 17.9896C0.802161 17.9598 0.77024 17.9326 0.739864 17.9044L0.713606 17.9157ZM3.34967 16.1763C3.34878 15.9409 3.29808 15.7083 3.20087 15.4937C2.98721 15.0247 2.49809 14.6423 1.91373 14.6808C1.62102 14.6959 1.34255 14.8114 1.12549 15.0077C0.84327 15.257 0.666141 15.6036 0.629685 15.9777C0.571506 16.4791 0.659031 16.9395 0.997291 17.3311C1.11756 17.4772 1.26918 17.5945 1.44097 17.6745C1.61276 17.7544 1.80035 17.7949 1.98993 17.793C2.15571 17.7934 2.31989 17.7608 2.47285 17.6971C2.6258 17.6334 2.76445 17.5398 2.88063 17.4219C3.21426 17.0991 3.35173 16.6962 3.3507 16.1763H3.34967Z" fill="#888888"/>
<path d="M21.4055 16.5611C21.4039 16.7416 21.452 16.9191 21.5445 17.0743C21.7079 17.3741 21.9737 17.6057 22.2936 17.7271C22.7601 17.9016 23.2955 17.722 23.5998 17.3678C23.6276 17.3355 23.6549 17.3027 23.6904 17.2601H24.4478C24.4148 17.3253 24.3911 17.3781 24.3618 17.4274C24.1404 17.7995 23.8552 18.1048 23.4556 18.2911C23.2711 18.3708 23.0751 18.4212 22.8749 18.4405C22.5717 18.4747 22.2647 18.4384 21.978 18.3343C21.7709 18.2622 21.5798 18.1509 21.4153 18.0063C20.9997 17.6655 20.7323 17.1779 20.6687 16.6452C20.6173 16.247 20.6173 15.8502 20.7485 15.4648C20.99 14.754 21.4487 14.2474 22.1968 14.0714C22.8291 13.9225 23.4016 14.0714 23.885 14.5215C24.2454 14.8571 24.4411 15.2744 24.5199 15.7532C24.5608 15.9851 24.5608 16.2224 24.5199 16.4543C24.5137 16.4872 24.5013 16.5185 24.4884 16.5636L21.4055 16.5611ZM23.7785 15.9452C23.782 15.9238 23.7834 15.9022 23.7826 15.8805C23.7394 15.5702 23.6081 15.2787 23.4042 15.0404C23.2534 14.8631 23.0467 14.7421 22.8179 14.6971C22.5891 14.6522 22.3518 14.686 22.1448 14.793C21.7329 15.0193 21.5038 15.3719 21.4127 15.8225C21.4084 15.8633 21.4076 15.9043 21.4101 15.9452H23.7785Z" fill="#888888"/>
<path d="M54.2709 16.561H51.1772C51.1735 16.603 51.1735 16.6453 51.1772 16.6873C51.2341 16.9927 51.3966 17.2685 51.6364 17.4669C51.7629 17.583 51.9118 17.672 52.0741 17.7286C52.5225 17.8677 52.9184 17.7692 53.2665 17.4638C53.3339 17.4053 53.3905 17.3345 53.4595 17.2621H54.2128C54.1649 17.3514 54.1288 17.4325 54.0804 17.5054C53.8905 17.7938 53.6624 18.0453 53.3597 18.2198C53.1411 18.3381 52.9012 18.4119 52.6538 18.4369C52.3422 18.4736 52.0262 18.435 51.7327 18.3245C51.418 18.2068 51.1403 18.0079 50.928 17.7481C50.6412 17.4098 50.4662 16.9915 50.427 16.5503C50.3802 16.1315 50.407 15.7214 50.565 15.3298C50.8224 14.6908 51.2693 14.2351 51.9551 14.0719C52.5441 13.9313 53.093 14.0421 53.5687 14.4409C53.9939 14.7971 54.2179 15.2554 54.2931 15.7973C54.3251 16.0515 54.3176 16.3091 54.2709 16.561ZM51.1725 15.9452H53.5522C53.5514 15.9017 53.5479 15.8584 53.5419 15.8153C53.4847 15.4985 53.3335 15.206 53.1079 14.9757C52.7614 14.6241 52.2033 14.601 51.8321 14.8397C51.5557 15.0166 51.3484 15.2825 51.2446 15.5931C51.2008 15.7055 51.1764 15.8246 51.1725 15.9452Z" fill="#888888"/>
<path d="M8.32684 18.402H7.81455L7.61891 17.9262C7.60096 17.9362 7.58375 17.9476 7.56742 17.9601C7.26829 18.2588 6.89451 18.3845 6.48623 18.4358C6.18325 18.479 5.87421 18.4324 5.59759 18.3019C5.22329 18.1217 4.94733 17.84 4.88091 17.4207C4.80368 16.9357 4.884 16.5205 5.37775 16.1797C5.61448 16.0239 5.88118 15.919 6.16084 15.8717C6.58645 15.7931 7.01874 15.7559 7.45158 15.7609C7.50307 15.7609 7.55455 15.7542 7.61067 15.7501C7.64002 15.4976 7.62715 15.2656 7.46806 15.0619C7.26829 14.8053 7.00778 14.6621 6.6829 14.6672C6.33744 14.6734 5.98991 14.7698 5.83442 15.2215C5.82618 15.2451 5.81434 15.2672 5.8025 15.2933H5.05853C5.11826 14.7088 5.57648 14.2156 6.15157 14.0801C6.52381 13.9928 6.90069 13.9774 7.26881 14.1032C7.79139 14.2782 8.14767 14.621 8.28977 15.1625C8.31684 15.2657 8.33068 15.3719 8.33096 15.4786C8.33456 16.4194 8.33096 17.3601 8.33096 18.3014C8.33301 18.3322 8.32941 18.3609 8.32684 18.402ZM7.60604 16.424C7.55765 16.4165 7.50879 16.4123 7.45982 16.4117C7.17356 16.4255 6.88679 16.4358 6.60104 16.463C6.40874 16.4757 6.21933 16.5163 6.03882 16.5836C5.87201 16.6498 5.72218 16.7376 5.6362 16.9033C5.51212 17.142 5.54044 17.4022 5.73557 17.5829C5.88575 17.7194 6.08169 17.795 6.28492 17.7948C6.55209 17.8067 6.81702 17.7414 7.04794 17.607C7.54117 17.318 7.68121 16.9634 7.60604 16.424Z" fill="#888888"/>
<path d="M39.6757 19.9555V19.4012C39.7349 19.391 39.7926 19.3817 39.8502 19.3709C39.9486 19.3578 40.0424 19.3211 40.1236 19.2641C40.2048 19.2071 40.271 19.1314 40.3167 19.0435C40.4196 18.8428 40.5036 18.6329 40.5952 18.4276C40.6091 18.3963 40.6194 18.3635 40.6379 18.3137C40.0798 16.9146 39.5169 15.5034 38.9492 14.0801H39.7061L41.0035 17.3827H41.0339L42.3313 14.0801H43.0851C43.0609 14.1468 43.0408 14.2053 43.0176 14.2628C42.454 15.6752 41.8901 17.0876 41.3258 18.5C41.2115 18.7859 41.1044 19.0748 40.9494 19.3417C40.8421 19.5425 40.6895 19.7158 40.5036 19.8477C40.4066 19.9153 40.2967 19.9622 40.1808 19.9857C40.0649 20.0092 39.9454 20.0087 39.8296 19.9843C39.7823 19.9724 39.7385 19.9658 39.6757 19.9555Z" fill="#888888"/>
<path d="M9.03906 14.0781H9.79642C10.2273 15.1759 10.6593 16.2758 11.1041 17.4075C11.2401 17.1139 11.3343 16.8378 11.4424 16.5678C11.5505 16.2979 11.6617 16.0115 11.7709 15.7333L12.0947 14.9121L12.4217 14.0802C12.6688 14.0663 12.9149 14.0751 13.1795 14.074C13.1183 14.228 13.0647 14.3686 13.0096 14.5062C12.4299 15.9579 11.8498 17.4099 11.2694 18.862C11.1433 19.1766 10.994 19.4778 10.7468 19.7216C10.6577 19.8147 10.5497 19.8877 10.43 19.9358C10.3104 19.984 10.1818 20.0061 10.0528 20.0008C9.95711 19.9928 9.8619 19.9798 9.76758 19.9618V19.4008C9.79744 19.3972 9.82628 19.3931 9.85511 19.3906C9.97816 19.3847 10.0972 19.3454 10.1995 19.2769C10.3018 19.2084 10.3833 19.1134 10.4354 19.0021C10.543 18.7839 10.6331 18.5576 10.734 18.3282C10.1697 16.9117 9.60643 15.5008 9.03906 14.0781Z" fill="#888888"/>
<path d="M26.249 18.3999H25.558C25.5328 18.307 25.523 14.3048 25.5467 14.0944C25.6327 14.0651 25.8937 14.059 26.0616 14.0841L26.2526 14.546C26.4915 14.2894 26.7819 14.1601 27.0892 14.0785C27.6082 13.9404 28.0886 14.0272 28.5179 14.3649C28.8897 14.6584 29.0977 15.0433 29.1775 15.5022C29.1969 15.6116 29.2069 15.7226 29.2073 15.8337C29.2104 16.6549 29.2073 17.476 29.2073 18.2972C29.2073 18.3265 29.2037 18.3557 29.2017 18.3947H28.4984C28.4984 18.3434 28.4984 18.2921 28.4984 18.2408C28.4984 17.4624 28.4984 16.684 28.4984 15.9056C28.5018 15.7216 28.4698 15.5387 28.4042 15.3667C28.3099 15.1206 28.1321 14.9152 27.9017 14.7862C27.7653 14.7129 27.6128 14.6748 27.4579 14.6754C27.1005 14.6651 26.7885 14.7749 26.5471 15.0418C26.3546 15.2521 26.2488 15.527 26.251 15.8117C26.2459 16.4876 26.251 17.1635 26.251 17.8389L26.249 18.3999Z" fill="#888888"/>
<path d="M35.3984 17.1312H36.0966C36.1095 17.1635 36.1244 17.1938 36.1336 17.2256C36.2145 17.5171 36.4091 17.6927 36.7 17.7625C36.9085 17.8184 37.129 17.8101 37.3327 17.7388C37.4458 17.6974 37.5473 17.6297 37.6288 17.5412C37.7786 17.3821 37.8028 17.1933 37.756 16.9926C37.7431 16.9424 37.7191 16.8958 37.6857 16.8562C37.6522 16.8165 37.6103 16.7849 37.5629 16.7637C37.4063 16.6853 37.2442 16.6184 37.0779 16.5636C36.8364 16.4896 36.5883 16.4409 36.3447 16.3747C36.0013 16.2813 35.7197 16.0991 35.5879 15.7588C35.3974 15.2635 35.4896 14.7226 35.9457 14.3454C36.2032 14.1314 36.5064 14.0374 36.8359 14.0267C37.0673 14.0095 37.2998 14.0352 37.5217 14.1026C38.0366 14.2776 38.3305 14.64 38.4253 15.1686C38.4286 15.2063 38.4286 15.2443 38.4253 15.282C38.3372 15.3108 37.9037 15.3185 37.7302 15.2938C37.7215 15.26 37.7127 15.2235 37.7034 15.1876C37.6334 14.9228 37.4646 14.7554 37.1958 14.701C36.9415 14.6497 36.6912 14.661 36.4704 14.8181C36.3159 14.9289 36.2047 15.069 36.2129 15.2769C36.2119 15.3607 36.2341 15.4431 36.2772 15.515C36.3202 15.587 36.3825 15.6456 36.457 15.6844C36.6649 15.7958 36.8879 15.8767 37.1191 15.9246C37.3019 15.9677 37.4851 16.0123 37.6684 16.0544C37.8981 16.1135 38.1025 16.2452 38.251 16.4296C38.3994 16.6141 38.4841 16.8415 38.4922 17.0778C38.5069 17.3814 38.4135 17.6803 38.2286 17.9219C38.0437 18.1635 37.7791 18.3323 37.4815 18.3983C37.0264 18.501 36.5759 18.4815 36.1537 18.27C35.9566 18.1774 35.7863 18.0363 35.6587 17.8601C35.5312 17.6839 35.4507 17.4783 35.4247 17.2626C35.4144 17.2236 35.4077 17.1861 35.3984 17.1312Z" fill="#888888"/>
<path d="M46.6432 15.2981H45.9394C45.927 15.2544 45.9142 15.2144 45.9039 15.1739C45.8318 14.8931 45.6387 14.7428 45.3638 14.6904C45.2079 14.6588 45.0466 14.6661 44.8942 14.7114C44.6651 14.7823 44.4921 14.9167 44.4232 15.1585C44.4012 15.2564 44.4108 15.3588 44.4507 15.4509C44.4905 15.5431 44.5585 15.6204 44.6451 15.6717C44.8595 15.7886 45.0903 15.8729 45.3298 15.9216C45.509 15.9627 45.6902 16.0048 45.8668 16.0494C46.1 16.1055 46.3077 16.2376 46.4569 16.4248C46.6062 16.6119 46.6884 16.8435 46.6906 17.0826C46.7012 17.2645 46.6717 17.4465 46.6042 17.6159C46.5367 17.7852 46.4328 17.9378 46.2998 18.0628C46.0855 18.2635 45.813 18.3912 45.5213 18.4277C45.2624 18.4675 44.9983 18.4593 44.7424 18.4036C44.1503 18.2748 43.7018 17.8642 43.6097 17.2124C43.6087 17.1848 43.61 17.1572 43.6133 17.1298H44.3032C44.3119 17.1549 44.3217 17.1811 44.3305 17.2104C44.4185 17.506 44.6111 17.6954 44.9138 17.7631C45.1316 17.8174 45.3609 17.8025 45.5697 17.7205C45.8205 17.6179 46.011 17.3895 45.9749 17.0641C45.9666 17.0024 45.9441 16.9435 45.9092 16.892C45.8743 16.8404 45.8279 16.7976 45.7736 16.7669C45.6173 16.6689 45.4457 16.5973 45.266 16.555C44.9766 16.478 44.6837 16.4118 44.399 16.3204C43.9871 16.1875 43.7219 15.8159 43.7065 15.3802C43.6988 15.178 43.7029 14.9773 43.7961 14.7915C43.8865 14.5984 44.0228 14.4302 44.1933 14.3015C44.3638 14.1729 44.5633 14.0878 44.7743 14.0535C45.0609 13.994 45.3574 14.0012 45.6408 14.0745C46.184 14.2249 46.516 14.5739 46.619 15.1297C46.6267 15.1816 46.6329 15.2319 46.6432 15.2981Z" fill="#888888"/>
<path d="M49.6975 17.7527V18.3578C49.5416 18.439 49.3646 18.4712 49.1899 18.4501C48.5103 18.3988 48.1252 17.845 48.0423 17.3144C48.0242 17.1874 48.0156 17.0592 48.0165 16.931C48.0165 16.251 48.0165 15.5709 48.0165 14.8909V14.7267C47.7591 14.7046 47.5104 14.7267 47.2654 14.7123C47.237 14.6204 47.2309 14.2442 47.2561 14.08C47.2865 14.0764 47.3189 14.0718 47.3519 14.0697C47.4548 14.0636 47.5578 14.0564 47.6608 14.0538C47.9053 14.0482 48.1072 13.8773 48.1159 13.5796C48.1216 13.3918 48.1159 13.2034 48.119 13.0151C48.119 12.9817 48.1221 12.9478 48.1241 12.9062H48.7301V14.0595C48.8915 14.0709 49.0534 14.074 49.2151 14.0687C49.3727 14.0687 49.5307 14.0687 49.6965 14.0687V14.7072C49.6569 14.7102 49.6162 14.7159 49.5755 14.7159C49.3438 14.7159 49.1121 14.7159 48.8805 14.7159C48.8352 14.7159 48.7893 14.7241 48.7301 14.7298V16.9962C48.7293 17.1245 48.7525 17.252 48.7986 17.3719C48.8543 17.5113 48.9562 17.6275 49.0873 17.7011C49.2184 17.7748 49.3709 17.8015 49.5194 17.7768C49.5735 17.7696 49.6285 17.7629 49.6975 17.7527Z" fill="#888888"/>
<path d="M30.0176 14.7097V14.081C30.0608 14.0774 30.1015 14.0733 30.1422 14.0713C30.2534 14.0646 30.3661 14.0677 30.4753 14.0502C30.7003 14.0148 30.8449 13.8783 30.8655 13.6397C30.882 13.4441 30.88 13.247 30.8856 13.051C30.8856 13.0053 30.8856 12.9596 30.8856 12.9062H31.4921C31.5071 13.2855 31.4896 13.6679 31.5019 14.0641C31.8206 14.08 32.1316 14.0641 32.4498 14.0754V14.702C32.3468 14.7328 32.2438 14.7144 32.1408 14.7174C32.0379 14.7205 31.9267 14.7174 31.8196 14.7174H31.5076C31.5024 14.7688 31.4957 14.7996 31.4957 14.8324C31.4957 15.568 31.4957 16.3037 31.4957 17.0393C31.4906 17.1852 31.5247 17.3298 31.5946 17.4581C31.6627 17.5776 31.7669 17.6728 31.8922 17.73C32.0176 17.7873 32.1579 17.8039 32.2932 17.7773C32.3396 17.7686 32.3864 17.7634 32.4323 17.7563C32.4616 17.8389 32.4693 18.1951 32.4436 18.3721C32.2849 18.4427 32.1103 18.4703 31.9375 18.4522C31.261 18.3921 30.8774 17.8255 30.8115 17.3421C30.794 17.2109 30.7852 17.0787 30.7852 16.9464C30.7852 16.2628 30.7852 15.5786 30.7852 14.8935V14.7333C30.5257 14.6984 30.2771 14.7349 30.0176 14.7097Z" fill="#888888"/>
</g>
<defs>
<clipPath id="clip0_867_12931">
<rect width="75" height="20" fill="white"/>
</clipPath>
</defs>
</svg>
