<svg width="14" height="14" viewBox="0 0 14 14" fill="none" xmlns="http://www.w3.org/2000/svg">
<path d="M7.66663 10.3327L6.33329 10.3327L6.33329 8.99935L7.66663 8.99935L7.66663 10.3327ZM7.66663 7.66601L6.33329 7.66601L6.3333 3.66601L7.66663 3.66601L7.66663 7.66601ZM6.99996 13.666C10.68 13.666 13.6666 10.6793 13.6666 6.99935C13.6666 3.31935 10.68 0.332681 6.99996 0.33268C3.31996 0.332679 0.333295 3.31934 0.333294 6.99935C0.333293 10.6793 3.31996 13.666 6.99996 13.666ZM6.99996 1.66601C9.93996 1.66601 12.3333 4.05935 12.3333 6.99935C12.3333 9.93935 9.93996 12.3327 6.99996 12.3327C4.05996 12.3327 1.66663 9.93935 1.66663 6.99935C1.66663 4.05935 4.05996 1.66601 6.99996 1.66601Z" fill="#EE8079"/>
</svg>
