<svg width="67" height="18" viewBox="0 0 67 18" fill="none" xmlns="http://www.w3.org/2000/svg">
<g clip-path="url(#clip0_510_17485)">
<path d="M5.48352 12.2363V18.0008C7.68728 14.3387 9.83379 10.6539 11.986 6.98607L12.6329 5.85577C12.6355 5.84951 12.6369 5.84278 12.6369 5.83599C12.6369 5.8292 12.6355 5.82248 12.6329 5.81622C12.6329 5.81622 12.6328 5.81622 12.5928 5.771H9.08966C8.51726 5.771 7.94486 5.771 7.32093 5.771V0.0234375H7.24652C4.84242 4.08686 2.43259 8.15028 -0.00585938 12.2589L5.48352 12.2363Z" fill="#F4CF46"/>
<path d="M44.1895 14.6773V8.27981C44.1895 8.04809 44.1895 7.81074 44.1608 7.57903C44.1176 6.93256 43.8738 6.31492 43.4625 5.81011C43.0534 5.32464 42.5152 4.96161 41.9084 4.7619C41.3016 4.5622 40.6504 4.53377 40.0281 4.67981C39.3495 4.81749 38.7173 5.12277 38.1907 5.5671L37.8243 5.83837V5.30712V4.87761H35.3802C35.3635 4.91749 35.352 4.95926 35.3458 5.00195V14.4795C35.3431 14.5247 35.3431 14.57 35.3458 14.6151L35.4031 14.666C36.1758 14.666 36.9772 14.666 37.8186 14.666V14.2534C37.8186 12.6541 37.8472 11.049 37.8644 9.44967C37.8663 9.01588 37.9578 8.58703 38.1334 8.18939C38.2444 7.88379 38.4317 7.61073 38.6778 7.39541C38.9239 7.18008 39.2209 7.02943 39.5416 6.95736C39.7547 6.88605 39.9812 6.86244 40.2047 6.88825C40.4281 6.91406 40.643 6.98864 40.8337 7.10658C41.0244 7.22452 41.1861 7.38286 41.3072 7.57014C41.4282 7.75742 41.5055 7.96895 41.5335 8.18939C41.5888 8.42889 41.6214 8.67296 41.6308 8.91843C41.6308 9.44402 41.6766 9.96961 41.6766 10.4952C41.6766 11.7611 41.6766 13.0214 41.6766 14.2873V14.6773H44.1895Z" fill="black"/>
<path d="M61.4306 14.6774V7.00837C61.9401 6.95751 62.4266 7.00838 62.9189 6.96316C62.9189 6.59017 62.9189 6.25108 62.9189 5.91199C62.9411 5.56319 62.9296 5.21309 62.8845 4.86646H61.4306V1.28906H58.9235V4.85515C58.4885 4.90602 58.0706 4.85515 57.6699 4.90037V6.99142H58.9292V12.7672C58.9292 13.095 58.9292 13.4228 58.9292 13.7506C58.9292 14.0784 58.9292 14.3723 58.9292 14.6774H61.4306Z" fill="black"/>
<path d="M67.0004 13.5402C67.011 13.3586 66.9829 13.1767 66.9178 13.0065C66.8527 12.8363 66.7522 12.6815 66.6227 12.552C66.4932 12.4226 66.3376 12.3214 66.1661 12.2551C65.9945 12.1887 65.8107 12.1587 65.6266 12.1669C65.4368 12.1548 65.2466 12.1814 65.0676 12.2448C64.8886 12.3082 64.7247 12.4072 64.5859 12.5356C64.4472 12.6641 64.3366 12.8193 64.2611 12.9916C64.1855 13.1638 64.1465 13.3496 64.1465 13.5374C64.1465 13.7251 64.1855 13.9109 64.2611 14.0832C64.3366 14.2555 64.4472 14.4107 64.5859 14.5391C64.7247 14.6675 64.8886 14.7665 65.0676 14.83C65.2466 14.8934 65.4368 14.9199 65.6266 14.9079C65.8106 14.9178 65.9947 14.8891 66.1667 14.8238C66.3387 14.7584 66.4948 14.6578 66.6245 14.5286C66.7543 14.3994 66.8549 14.2445 66.9197 14.0741C66.9845 13.9038 67.012 13.7218 67.0004 13.5402Z" fill="#F4CF46"/>
<path d="M33.2965 10.4952C33.2965 10.2352 33.2965 10.0205 33.2965 9.80006C33.3112 8.77552 33.0205 7.76932 32.4608 6.9065C32.0407 6.24136 31.4622 5.68768 30.7758 5.29369C30.0895 4.89969 29.316 4.67731 28.5227 4.64591C27.7758 4.55427 27.0177 4.62676 26.3026 4.85819C25.5875 5.08962 24.933 5.47427 24.3861 5.9846C23.8391 6.49493 23.4131 7.11834 23.1387 7.81018C22.8643 8.50203 22.7481 9.24522 22.7986 9.98656C22.7876 10.8834 23.0289 11.7656 23.4959 12.535C23.9628 13.3043 24.6369 13.9305 25.4431 14.3439C26.4502 14.8653 27.594 15.0723 28.723 14.9373C29.4965 14.9004 30.2508 14.6874 30.9271 14.3148C31.6033 13.9422 32.1831 13.4203 32.6211 12.7897C31.9227 12.4337 31.2358 12.1285 30.549 11.8233C30.4001 11.9363 30.2627 12.0494 30.1196 12.1454C29.6663 12.4733 29.137 12.6838 28.5801 12.7578C28.0232 12.8319 27.4564 12.767 26.9314 12.5693C26.317 12.3622 25.8107 11.9233 25.5232 11.3486C25.3589 11.0927 25.2807 10.792 25.3 10.4895L33.2965 10.4952ZM28.1792 6.71435C28.7571 6.7044 29.3227 6.87966 29.7913 7.21386C30.2598 7.54806 30.606 8.0232 30.7779 8.56804H25.4546C25.6355 8.00405 26.0016 7.51565 26.495 7.17997C26.9884 6.84429 27.581 6.68046 28.1792 6.71435Z" fill="black"/>
<path d="M51.3055 4.64464C50.274 4.6569 49.2692 4.96995 48.4174 5.54444C47.5656 6.11893 46.9049 6.92923 46.5182 7.87345C46.1315 8.81767 46.0362 9.85369 46.2442 10.8513C46.4522 11.8488 46.9542 12.7634 47.6872 13.4801C48.4202 14.1967 49.3514 14.6834 50.3637 14.879C51.3761 15.0746 52.4244 14.9704 53.377 14.5794C54.3295 14.1884 55.1437 13.5281 55.7172 12.6815C56.2907 11.835 56.5979 10.8399 56.6003 9.82141C56.598 9.13793 56.4592 8.4616 56.1917 7.83121C55.9241 7.20082 55.5332 6.62876 55.0413 6.14783C54.5494 5.6669 53.9662 5.28655 53.3252 5.0286C52.6841 4.77065 51.9978 4.64018 51.3055 4.64464ZM53.0227 12.0707C52.6599 12.3663 52.2249 12.5628 51.7611 12.6406C51.2974 12.7184 50.8211 12.6747 50.3797 12.514C49.9384 12.3534 49.5474 12.0812 49.2458 11.7248C48.9443 11.3683 48.7426 10.94 48.661 10.4826C48.5524 9.95219 48.574 9.40379 48.724 8.88326C48.9164 8.25285 49.3364 7.71402 49.9043 7.36884C50.4722 7.02366 51.1486 6.8961 51.8054 7.01032C52.4621 7.12455 53.0537 7.47263 53.4679 7.98863C53.8822 8.50462 54.0904 9.1527 54.0531 9.8101C54.0641 10.2358 53.9789 10.6586 53.8036 11.0477C53.6284 11.4367 53.3675 11.7824 53.0399 12.0594L53.0227 12.0707Z" fill="black"/>
</g>
<defs>
<clipPath id="clip0_510_17485">
<rect width="67" height="18" fill="white"/>
</clipPath>
</defs>
</svg>
