<svg width="24" height="24" viewBox="0 0 24 24" fill="none" xmlns="http://www.w3.org/2000/svg">
<path d="M10.185 22.89C4.96 21.955 1 17.445 1 12C1 5.95 5.95 1 12 1C18.05 1 23 5.95 23 12C23 17.445 19.04 21.955 13.815 22.89L13.21 22.395H10.79L10.185 22.89Z" fill="url(#paint0_linear_42_11915)"/>
<path d="M16.2902 15.08L16.7852 12H13.8702V9.85504C13.8702 8.97504 14.2002 8.31504 15.5202 8.31504H16.9502V5.51004C16.1802 5.40004 15.3002 5.29004 14.5302 5.29004C12.0002 5.29004 10.2402 6.83004 10.2402 9.58004V12H7.49023V15.08H10.2402V22.835C10.8452 22.945 11.4502 23 12.0552 23C12.6602 23 13.2652 22.945 13.8702 22.835V15.08H16.2902Z" fill="white"/>
<defs>
<linearGradient id="paint0_linear_42_11915" x1="12.0005" y1="22.2349" x2="12.0005" y2="0.995948" gradientUnits="userSpaceOnUse">
<stop stop-color="#0062E0"/>
<stop offset="1" stop-color="#19AFFF"/>
</linearGradient>
</defs>
</svg>
