<svg width="181" height="33" viewBox="0 0 181 33" fill="none" xmlns="http://www.w3.org/2000/svg">
<g clip-path="url(#clip0_14_10339)">
<path d="M6.105 8.74451C2.71563 8.84076 0 11.6183 0 15.0283V26.3514C0 29.7614 2.71563 32.5389 6.105 32.642C6.20813 32.642 6.29062 32.5595 6.29062 32.4564V8.93014C6.29062 8.82701 6.20813 8.73764 6.105 8.74451Z" fill="white"/>
<path d="M27.0874 14.9322C28.6962 11.9484 27.6512 8.20844 24.6949 6.50344L14.8912 0.845313C11.9349 -0.859687 8.16742 0.102813 6.39367 2.99031C6.33867 3.07969 6.37305 3.18969 6.46242 3.24469L26.8468 15.0078C26.9293 15.0559 27.0393 15.0216 27.0874 14.9322Z" fill="white"/>
<path d="M31.7187 17.9989L11.3344 29.762C11.245 29.8102 11.2175 29.927 11.2656 30.0164C13.0462 32.9039 16.8069 33.8664 19.7631 32.1614L29.5737 26.5033C32.53 24.7983 33.575 21.0583 31.9662 18.0745C31.9181 17.9783 31.8081 17.9439 31.7187 17.9989Z" fill="white"/>
<path d="M12.9725 13.668C12.45 13.3655 11.7969 13.7436 11.7969 14.3486V21.588C11.7969 22.193 12.45 22.5711 12.9725 22.2686L19.2562 18.6524C19.7787 18.3499 19.7787 17.5936 19.2562 17.2911L12.9725 13.668Z" fill="white"/>
<path d="M107.945 4.93678C105.463 4.93678 102.981 4.92303 100.492 4.93678C100.183 4.96428 100.162 5.2874 100.169 5.5349C100.169 11.8943 100.169 18.2605 100.169 24.6199C100.162 24.9774 100.231 25.1905 100.63 25.1836C101.461 25.1836 102.293 25.1836 103.125 25.1836C103.51 25.218 103.606 24.9361 103.579 24.6199C103.579 22.6743 103.579 20.7355 103.579 18.7899C105.064 18.7899 106.542 18.783 108.027 18.7761C108.536 18.7761 109.038 18.7211 109.533 18.6318C111.375 18.3224 113.115 17.2911 114.008 15.6136C115.012 13.7368 115.115 11.303 114.517 9.28865C113.63 6.34615 110.887 4.94365 107.945 4.93678ZM110.062 14.9674C109.168 15.5518 108.075 15.6274 107.037 15.6205C105.889 15.6205 104.741 15.6205 103.593 15.6205C103.593 13.1111 103.593 10.6224 103.593 8.13365C104.995 8.10615 106.398 8.12677 107.8 8.13365C108.371 8.14052 108.935 8.24365 109.471 8.45677C110.605 8.86928 111.231 9.94177 111.341 11.1105C111.485 12.4786 111.32 14.1424 110.062 14.9674Z" fill="white"/>
<path d="M64.8431 21.952C63.1931 17.2289 61.5362 12.5058 59.8793 7.78953C59.5837 6.95078 59.3018 6.11203 58.9925 5.27328C58.9031 5.03266 58.7312 4.93641 58.4768 4.93641C57.4525 4.94328 56.4281 4.93641 55.3968 4.93641C55.0531 4.92266 54.9225 5.07391 54.8125 5.37641C52.5712 11.7839 50.33 18.1914 48.075 24.5989C47.9375 24.9495 48.0131 25.197 48.4118 25.1902C49.3056 25.1902 50.2062 25.1902 51.1 25.197C51.4025 25.197 51.5812 25.0458 51.6568 24.7914C51.8356 24.2345 52.0143 23.6845 52.1931 23.1277C52.475 22.282 52.7293 21.4295 53.025 20.5908C53.2106 20.5633 60.6975 20.5702 60.8075 20.6045C61.2681 22.0277 61.7287 23.4508 62.1962 24.8739C62.265 25.1283 62.5193 25.197 62.7531 25.197C63.5368 25.197 64.3206 25.197 65.1043 25.197C66.0118 25.2658 65.8743 24.9152 65.6337 24.262C65.3862 23.4852 65.1112 22.722 64.8431 21.952ZM54.015 17.4627C54.9637 14.5408 55.9193 11.6258 56.8681 8.69016C56.9025 8.68328 56.93 8.67641 56.9643 8.66953C57.3425 9.63203 57.6106 10.6427 57.9475 11.6189C58.5662 13.5645 59.2331 15.5033 59.8312 17.4558C59.7281 17.4833 54.1868 17.4902 54.015 17.4627Z" fill="white"/>
<path d="M96.0293 10.8556C96.0155 10.6149 95.7955 10.5187 95.5824 10.5256C94.7918 10.5256 93.9943 10.5256 93.2037 10.5256C92.963 10.5049 92.7499 10.6356 92.7499 10.8968C92.743 14.3343 92.7499 17.7718 92.7499 21.2093C91.5055 21.8762 89.7524 22.0068 88.4462 21.4431C87.3462 20.9687 86.9062 19.8137 86.9474 18.6793C86.9474 16.1493 86.9474 13.6124 86.9474 11.0824C86.968 10.7387 86.8924 10.5324 86.5143 10.5324C85.7237 10.5324 84.9262 10.5324 84.1355 10.5324C83.7849 10.5049 83.6268 10.7593 83.6612 11.0756C83.6612 13.5918 83.6612 16.1149 83.6612 18.6312C83.4893 22.0412 85.8474 24.4956 89.2024 24.7499C90.4124 24.8599 91.6087 24.5849 92.7705 24.2824C92.8255 25.4924 92.633 26.9774 91.4368 27.5962C90.2268 28.1806 88.7762 28.0018 87.5455 27.5687C87.0024 27.3693 86.4937 27.1012 86.0193 26.7849C85.8199 26.6406 85.5449 26.4549 85.3455 26.7093C85.043 27.1081 84.768 27.5274 84.4724 27.9331C84.3349 28.1324 84.1905 28.3249 84.0599 28.5243C83.9018 28.7649 83.9224 28.9231 84.1424 29.1018C85.0637 29.8718 86.1499 30.4012 87.3255 30.6556C89.1887 31.0131 91.2168 31.0337 92.9905 30.2774C95.3624 29.2737 96.0843 26.5993 96.0293 24.2274C96.0293 19.7587 96.0362 15.3037 96.0293 10.8556Z" fill="white"/>
<path d="M79.5033 12.8483C78.2039 10.5108 75.2751 10.009 72.8276 10.2015C71.2189 10.2977 69.6101 10.6346 68.1183 11.274C67.857 11.3702 67.7951 11.6452 67.802 11.8996C67.802 12.6283 67.802 13.3571 67.802 14.0858C67.8158 17.6952 67.7745 21.3046 67.8158 24.9071C67.8364 25.134 68.077 25.1958 68.2695 25.1958C68.957 25.1958 69.6445 25.1958 70.332 25.1958C70.6414 25.2027 71.0745 25.244 71.0883 24.8315C71.1089 21.0296 71.0745 17.2277 71.102 13.4258C72.0851 13.1921 73.082 13.1027 74.0926 13.1371C74.9589 13.1508 75.9008 13.4052 76.437 14.1408C77.0145 14.9315 77.0626 15.9283 77.0558 16.8702C77.0558 19.4827 77.0558 22.0952 77.0558 24.7008C77.0558 25.024 77.2001 25.2027 77.5576 25.2027C78.3345 25.1958 79.1183 25.2027 79.8951 25.2027C80.1083 25.2233 80.3214 25.1202 80.342 24.8865C80.3695 22.1227 80.342 19.359 80.3489 16.5952C80.3489 15.2958 80.1495 13.9758 79.5033 12.8483Z" fill="white"/>
<path d="M124.121 22.7567C124.018 22.3511 123.51 22.5367 123.207 22.5229C122.547 22.5642 121.77 22.5848 121.303 22.0279C120.766 21.3817 120.773 20.5017 120.773 19.7042C120.773 17.4423 120.773 15.1804 120.773 12.9186C120.773 10.4436 120.773 7.96856 120.773 5.48669C120.766 5.29419 120.773 5.03294 120.546 4.97106C120.464 4.95044 120.375 4.92981 120.285 4.92981C119.467 4.92981 118.642 4.92294 117.824 4.92981C117.508 4.94356 117.466 5.25981 117.473 5.51419C117.473 8.04419 117.473 10.5811 117.473 13.1111C117.473 15.0842 117.473 17.0504 117.473 19.0236C117.487 19.7729 117.466 20.5292 117.556 21.2717C117.755 22.9629 118.676 24.6611 120.368 25.2386C121.468 25.6442 122.664 25.5686 123.805 25.4586C124.101 25.4448 124.149 25.1492 124.149 24.9154C124.128 24.2004 124.183 23.4717 124.121 22.7567Z" fill="white"/>
<path d="M152.666 10.5382C151.889 10.5382 151.105 10.5382 150.329 10.5382C150.088 10.5176 149.854 10.6413 149.854 10.9026C149.847 14.3401 149.854 17.7776 149.854 21.2151C148.623 21.882 146.905 22.0057 145.605 21.4695C144.478 21.0088 144.01 19.8538 144.058 18.6988C144.058 16.1551 144.058 13.6182 144.058 11.0745C144.086 10.7445 143.99 10.5313 143.625 10.5382C142.794 10.5382 141.962 10.5313 141.13 10.5382C140.917 10.5588 140.779 10.6963 140.765 10.9095C140.758 13.4945 140.765 16.0726 140.765 18.6576C140.607 22.0813 142.945 24.4945 146.314 24.7488C147.517 24.8588 148.706 24.5838 149.854 24.2813C149.889 24.3295 149.875 24.3707 149.882 24.4257C149.888 25.182 149.827 25.9726 149.469 26.6601C148.74 28.0695 146.877 28.1038 145.509 27.822C144.547 27.6226 143.68 27.162 142.869 26.6257C142.649 26.4951 142.457 26.6601 142.347 26.8526C141.996 27.3476 141.652 27.8357 141.302 28.3307C140.793 28.9563 141.205 29.0526 141.68 29.4376C142.972 30.3932 144.56 30.8126 146.155 30.8745C147.503 30.9295 148.892 30.8332 150.136 30.2695C152.405 29.2795 153.154 26.7563 153.14 24.4601C153.133 19.9295 153.147 15.3988 153.14 10.8682C153.12 10.607 152.886 10.5382 152.666 10.5382Z" fill="white"/>
<path d="M166.464 11.3023C163.652 9.37041 158.565 9.88603 156.929 13.1379C156.489 13.9973 156.303 14.9667 156.296 15.9292C156.296 17.3179 156.289 18.7135 156.296 20.1023C156.296 20.6867 156.379 21.2573 156.55 21.8142C157.527 25.0592 161.37 26.0079 164.367 25.396C165.804 25.1417 167.145 24.5023 168.279 23.5948C168.499 23.4435 168.506 23.1685 168.327 22.976C168.018 22.5635 167.715 22.151 167.406 21.7385C167.234 21.4979 167.014 21.1198 166.677 21.3329C165.784 21.9242 164.8 22.426 163.735 22.5773C162.312 22.8179 160.359 22.6529 159.789 21.0785C159.562 20.4942 159.624 19.8892 159.617 19.2635C162.456 19.2635 165.282 19.2635 168.121 19.2635C168.375 19.291 168.65 19.2085 168.664 18.9129C168.644 17.5654 168.747 16.211 168.582 14.8704C168.389 13.461 167.654 12.1204 166.464 11.3023ZM165.454 16.6992C163.515 16.7335 161.569 16.7129 159.63 16.706C159.596 15.8604 159.582 14.9598 160.05 14.2173C160.675 13.1929 162.009 12.966 163.116 13.1104C164.092 13.2135 165.007 13.8598 165.295 14.8223C165.495 15.4273 165.467 16.0735 165.454 16.6992Z" fill="white"/>
<path d="M137.121 13.5153C136.413 11.3497 134.391 10.3115 132.219 10.2015C130.287 10.0915 128.28 10.4078 126.568 11.3497C126.396 11.4459 126.224 11.5559 126.059 11.6659C125.846 11.7828 125.921 12.0097 126.031 12.1747C126.403 12.7522 126.781 13.3228 127.159 13.8934C127.303 14.1134 127.482 14.1478 127.709 14.024C129.111 13.2128 131.325 12.814 132.879 13.3365C134.158 13.7903 134.254 15.3372 134.185 16.499C132.356 16.2928 130.486 16.114 128.685 16.6022C125.949 17.2965 124.629 19.4347 125.323 22.1847C126.65 26.6947 133.656 25.7322 137.141 24.7215C137.416 24.6528 137.513 24.3709 137.492 24.1165C137.492 22.439 137.492 20.7615 137.492 19.084C137.492 17.9359 137.499 16.7809 137.485 15.6328C137.478 14.904 137.361 14.1959 137.121 13.5153ZM134.192 22.3634C132.686 22.659 131.05 22.9547 129.579 22.3772C129.242 22.2259 128.946 22.0334 128.733 21.7172C128.341 21.1122 128.362 20.2803 128.823 19.7165C129.916 18.4997 132.7 18.9809 134.185 19.1459C134.192 20.2253 134.192 21.284 134.192 22.3634Z" fill="white"/>
<path d="M180.124 10.9376C180.138 10.6833 180.055 10.4426 179.773 10.4151C179.099 10.2983 178.412 10.2639 177.724 10.2089C175.717 10.092 173.654 10.4083 171.839 11.2883C171.606 11.3776 171.599 11.6458 171.585 11.8589C171.578 16.1214 171.585 20.3839 171.585 24.6464C171.564 25.0176 171.661 25.217 172.059 25.2101C172.878 25.2101 173.696 25.217 174.507 25.2101C174.72 25.1964 174.851 25.0726 174.871 24.8595C174.885 21.0783 174.871 17.2901 174.878 13.5089C175.49 13.2683 176.129 13.1651 176.776 13.1308C177.766 13.0826 178.756 13.0964 179.732 13.2339C180.007 13.2751 180.144 13.0414 180.124 12.7939C180.124 12.1683 180.124 11.5495 180.124 10.9376Z" fill="white"/>
</g>
<defs>
<clipPath id="clip0_14_10339">
<rect width="180.125" height="33" fill="white"/>
</clipPath>
</defs>
</svg>
