<svg width="21" height="21" viewBox="0 0 21 21" fill="none" xmlns="http://www.w3.org/2000/svg">
<path d="M7.85039 3.99999L5.85039 1.99999H20.0004V3.99999H7.85039ZM21.0004 17L19.0004 15V7.99999H15.0004V11.15L13.0004 9.14999V6.99999C13.0004 6.71665 13.0962 6.47915 13.2879 6.28749C13.4796 6.09582 13.7171 5.99999 14.0004 5.99999H20.0004C20.2837 5.99999 20.5212 6.09582 20.7129 6.28749C20.9046 6.47915 21.0004 6.71665 21.0004 6.99999V17ZM18.8004 20.6L16.2004 18H14.0004C13.7171 18 13.4796 17.9042 13.2879 17.7125C13.0962 17.5208 13.0004 17.2833 13.0004 17V14.8L5.00039 6.79999V15H11.0004V18H1.00039V15H3.00039V4.79999L0.400391 2.19999L1.80039 0.799988L20.2004 19.2L18.8004 20.6Z" fill="#97A5F9"/>
</svg>
