<svg width="18" height="19" viewBox="0 0 18 19" fill="none" xmlns="http://www.w3.org/2000/svg">
<path d="M3.35829 4.80929C1.49384 4.86223 0 6.3901 0 8.26591V14.4946C0 16.3704 1.49384 17.8983 3.35829 17.955C3.41502 17.955 3.4604 17.9097 3.4604 17.8529V4.9114C3.4604 4.85467 3.41502 4.8055 3.35829 4.80929Z" fill="#97A5F9"/>
<path d="M14.9009 8.21295C15.7859 6.57163 15.211 4.5143 13.5848 3.57639L8.19188 0.463923C6.56568 -0.473979 4.49322 0.0554817 3.5175 1.64386C3.48725 1.69303 3.50615 1.75354 3.55532 1.78379L14.7685 8.25456C14.8139 8.28103 14.8744 8.26212 14.9009 8.21295Z" fill="#97A5F9"/>
<path d="M17.4495 9.89969L6.23626 16.3705C6.18709 16.3969 6.17196 16.4612 6.19844 16.5104C7.17794 18.0988 9.24662 18.6282 10.8728 17.6903L16.2695 14.5779C17.8957 13.64 18.4706 11.5826 17.5856 9.94129C17.5591 9.88835 17.4986 9.86944 17.4495 9.89969Z" fill="#97A5F9"/>
<path d="M7.13596 7.51706C6.84853 7.35066 6.48926 7.55866 6.48926 7.89147V11.8738C6.48926 12.2066 6.84853 12.4146 7.13596 12.2482L10.5926 10.2589C10.88 10.0925 10.88 9.6765 10.5926 9.5101L7.13596 7.51706Z" fill="#97A5F9"/>
</svg>
