<svg width="21" height="19" viewBox="0 0 21 19" fill="none" xmlns="http://www.w3.org/2000/svg">
<path d="M18.8027 0.984061C18.5138 0.996631 18.2486 1.07974 18.0156 1.17156C17.8004 1.25632 17.0275 1.58116 15.7969 2.09734C14.5662 2.61353 12.9355 3.29792 11.1973 4.02898C7.72084 5.49111 3.81424 7.13581 1.8125 7.9782C1.74376 8.00684 1.46459 8.09231 1.15625 8.32781C0.8472 8.56386 0.503906 9.07615 0.503906 9.6364C0.503906 10.0884 0.72952 10.5487 1.00195 10.8122C1.27439 11.0757 1.55049 11.1989 1.78125 11.2907V11.2887C2.56128 11.5995 4.89069 12.5316 5.44531 12.7536C5.64204 13.3431 6.48659 15.867 6.6875 16.5016H6.68555C6.82756 16.9508 6.96598 17.2436 7.1582 17.488C7.25432 17.6102 7.36904 17.7209 7.50977 17.8083C7.56376 17.8418 7.62355 17.8678 7.68359 17.8923C7.69196 17.8958 7.70059 17.8967 7.70898 17.9001L7.68555 17.8942C7.70296 17.9012 7.71858 17.9115 7.73633 17.9177C7.76524 17.9276 7.78529 17.9273 7.82422 17.9352C7.96122 17.9774 8.09798 18.0055 8.22461 18.0055C8.76822 18.0055 9.10156 17.7106 9.10156 17.7106L9.12305 17.695L11.4707 15.7087L14.3457 18.3688C14.3982 18.443 14.8096 18.9997 15.7617 18.9997C16.3298 18.9997 16.779 18.7185 17.0664 18.4235C17.3538 18.1286 17.5328 17.8267 17.6133 17.4177L17.6152 17.4157C17.6794 17.0855 20.4316 3.26531 20.4316 3.26531L20.4258 3.28875C20.5114 2.9064 20.5367 2.53665 20.4355 2.15984C20.3344 1.78304 20.0613 1.41531 19.7324 1.22234C19.4036 1.02937 19.0917 0.97149 18.8027 0.984061ZM18.4082 3.17351C18.2994 3.71954 15.834 16.1056 15.6816 16.8825L11.5293 13.0407L8.72266 15.4137L9.5 12.3747C9.5 12.3747 14.8625 6.94655 15.1855 6.63055C15.4455 6.37755 15.5 6.28886 15.5 6.20086C15.5 6.08386 15.4398 5.99969 15.3008 5.99969C15.1758 5.99969 15.006 6.11947 14.916 6.17547C13.7724 6.88847 8.90128 9.66437 6.50586 11.027C6.3617 10.9692 4.1974 10.1001 3.03125 9.63445C5.10551 8.76145 8.66116 7.26549 11.9727 5.87273C13.7106 5.14179 15.3408 4.45678 16.5703 3.94109C17.6082 3.50578 18.1495 3.28039 18.4082 3.17351ZM15.6523 17.0251H15.6543L15.6523 17.0309C15.6536 17.0245 15.6514 17.0301 15.6523 17.0251Z" fill="white"/>
</svg>
