<svg width="70" height="18" viewBox="0 0 70 18" fill="none" xmlns="http://www.w3.org/2000/svg">
<path d="M22.3837 3.59961C22.2396 3.59961 22.1172 3.70105 22.0947 3.83918L20.4271 14.0967C20.421 14.1341 20.4234 14.1724 20.4341 14.2089C20.4447 14.2454 20.4634 14.2792 20.4888 14.3081C20.5142 14.3369 20.5458 14.36 20.5813 14.3759C20.6168 14.3918 20.6555 14.4 20.6946 14.4H22.6722C22.8161 14.4 22.9386 14.2984 22.9612 14.1604L23.451 11.1482C23.4733 11.0103 23.5959 10.9087 23.74 10.9087H25.538C27.6388 10.9087 29.4222 9.42191 29.7479 7.4073C30.0763 5.37565 28.44 3.60402 26.1207 3.59961H22.3837ZM24.3061 5.88948H25.7447C26.929 5.88948 27.3147 6.56729 27.1928 7.31688C27.0708 8.06808 26.4718 8.6214 25.3261 8.6214H23.8619L24.3061 5.88948ZM33.7701 6.58674C33.2708 6.58855 32.6962 6.68778 32.0511 6.9484C30.5714 7.54663 29.8608 8.78298 29.559 9.68434C29.559 9.68434 28.5985 12.4343 30.7686 13.9451C30.7686 13.9451 32.7811 15.3996 35.0467 13.8555L35.0076 14.0967C35.0016 14.1341 35.0039 14.1724 35.0146 14.2088C35.0252 14.2453 35.0438 14.2791 35.0692 14.3079C35.0946 14.3367 35.1261 14.3599 35.1615 14.3758C35.197 14.3917 35.2356 14.3999 35.2747 14.4H37.1521C37.2961 14.4 37.4185 14.2984 37.441 14.1604L38.583 7.13605C38.5891 7.09859 38.5868 7.06028 38.5762 7.02377C38.5656 6.98725 38.547 6.9534 38.5216 6.92454C38.4962 6.89568 38.4647 6.87249 38.4292 6.85657C38.3937 6.84065 38.3551 6.83238 38.3159 6.83233H36.4386C36.2945 6.83233 36.1719 6.93397 36.1496 7.0719L36.0882 7.45C36.0882 7.45 35.2685 6.58133 33.7701 6.58674ZM33.8315 8.80544C34.0471 8.80544 34.2443 8.83431 34.4212 8.88944C35.2313 9.14164 35.6905 9.89644 35.5576 10.7146C35.3937 11.722 34.5419 12.4638 33.4496 12.4638C33.2342 12.4638 33.037 12.4351 32.8599 12.38C32.05 12.1278 31.5879 11.373 31.7208 10.5548C31.8847 9.54741 32.7392 8.80544 33.8315 8.80544Z" fill="#003087"/>
<path d="M49.4188 3.59961C49.2747 3.59961 49.1524 3.70105 49.1299 3.83918L47.4623 14.0967C47.4562 14.1341 47.4586 14.1724 47.4692 14.2089C47.4799 14.2454 47.4986 14.2792 47.524 14.3081C47.5494 14.3369 47.581 14.36 47.6165 14.3759C47.652 14.3918 47.6906 14.4 47.7297 14.4H49.7074C49.8512 14.4 49.9738 14.2984 49.9963 14.1604L50.4862 11.1482C50.5085 11.0103 50.6311 10.9087 50.7751 10.9087H52.5731C54.674 10.9087 56.4571 9.42191 56.7827 7.4073C57.1113 5.37565 55.4751 3.60402 53.1558 3.59961H49.4188ZM51.3413 5.88948H52.7798C53.9642 5.88948 54.3499 6.56729 54.2279 7.31688C54.106 8.06808 53.5072 8.6214 52.3613 8.6214H50.8971L51.3413 5.88948ZM60.8051 6.58674C60.3057 6.58855 59.7311 6.68778 59.086 6.9484C57.6063 7.54663 56.8957 8.78298 56.5939 9.68434C56.5939 9.68434 55.6339 12.4343 57.8039 13.9451C57.8039 13.9451 59.8161 15.3996 62.0818 13.8555L62.0428 14.0967C62.0367 14.1341 62.0391 14.1724 62.0497 14.2089C62.0604 14.2454 62.0791 14.2792 62.1045 14.3081C62.1299 14.3369 62.1615 14.36 62.197 14.3759C62.2325 14.3918 62.2711 14.4 62.3102 14.4H64.1874C64.3315 14.4 64.4539 14.2984 64.4764 14.1604L65.6188 7.13605C65.6249 7.09855 65.6226 7.06021 65.6119 7.02367C65.6013 6.98713 65.5827 6.95326 65.5572 6.92439C65.5318 6.89552 65.5002 6.87234 65.4647 6.85644C65.4291 6.84055 65.3904 6.83232 65.3513 6.83233H63.4739C63.3298 6.83233 63.2073 6.93397 63.185 7.0719L63.1236 7.45C63.1236 7.45 62.3034 6.58133 60.8051 6.58674ZM60.8665 8.80544C61.0821 8.80544 61.2793 8.83431 61.4562 8.88944C62.2662 9.14164 62.7255 9.89644 62.5926 10.7146C62.4287 11.722 61.5769 12.4638 60.4845 12.4638C60.2691 12.4638 60.072 12.4351 59.8948 12.38C59.085 12.1278 58.6228 11.373 58.7557 10.5548C58.9197 9.54741 59.7741 8.80544 60.8665 8.80544Z" fill="#0070E0"/>
<path d="M39.4737 6.83223C39.3249 6.83223 39.2191 6.97317 39.2646 7.1105L41.3228 13.3055L39.4617 16.2249C39.3714 16.3666 39.4764 16.5496 39.6482 16.5496H41.8478C41.9107 16.5496 41.9725 16.5338 42.0273 16.5038C42.0821 16.4738 42.128 16.4306 42.1605 16.3784L47.9089 7.155C47.9971 7.01326 47.8917 6.83203 47.721 6.83203H45.5216C45.458 6.83208 45.3956 6.84817 45.3405 6.87872C45.2853 6.90927 45.2393 6.95322 45.207 7.00625L42.9443 10.7115L41.7957 7.03371C41.7583 6.91403 41.6444 6.83203 41.5156 6.83203L39.4737 6.83223Z" fill="#003087"/>
<path d="M67.7513 3.59961C67.6075 3.59961 67.4849 3.70125 67.4624 3.83918L65.7943 14.0963C65.7882 14.1338 65.7906 14.1721 65.8012 14.2087C65.8118 14.2452 65.8305 14.2791 65.8559 14.3079C65.8813 14.3368 65.9129 14.36 65.9484 14.3759C65.984 14.3918 66.0227 14.4 66.0618 14.4H68.0394C68.1833 14.4 68.3059 14.2984 68.3284 14.1604L69.996 3.90293C70.0021 3.8655 69.9997 3.82723 69.9891 3.79077C69.9784 3.75431 69.9598 3.72051 69.9344 3.69169C69.909 3.66287 69.8775 3.63972 69.8421 3.62383C69.8066 3.60793 69.768 3.59967 69.729 3.59961H67.7513Z" fill="#0070E0"/>
<path d="M5.89636 3.59961C5.76897 3.59971 5.64579 3.64388 5.54895 3.72417C5.45212 3.80446 5.38797 3.91561 5.36805 4.03765L4.49023 9.43775C4.53116 9.18555 4.75521 8.9997 5.01853 8.9997H7.59083C10.1797 8.9997 12.3764 7.16793 12.7778 4.6856C12.8076 4.50028 12.8246 4.3132 12.8284 4.12567C12.1705 3.79107 11.3977 3.59961 10.5509 3.59961H5.89636Z" fill="#001C64"/>
<path d="M12.8282 4.125C12.8243 4.31254 12.8074 4.49961 12.7775 4.68494C12.3761 7.16726 10.1792 8.99904 7.59057 8.99904H5.01828C4.75516 8.99904 4.5309 9.18468 4.48998 9.43708L3.68284 14.3993L3.17727 17.5124C3.1674 17.5725 3.1711 17.634 3.18812 17.6926C3.20514 17.7513 3.23507 17.8056 3.27585 17.8519C3.31662 17.8982 3.36727 17.9354 3.42429 17.9609C3.48132 17.9864 3.54337 17.9996 3.60616 17.9995H6.39816C6.52556 17.9994 6.64874 17.9553 6.74557 17.875C6.84241 17.7947 6.90654 17.6835 6.92646 17.5615L7.66187 13.0373C7.68181 12.9152 7.74601 12.804 7.84293 12.7237C7.93985 12.6434 8.06314 12.5992 8.1906 12.5992H9.83443C12.4233 12.5992 14.62 10.7675 15.0214 8.28513C15.3064 6.52333 14.3916 4.9201 12.8282 4.125Z" fill="#0070E0"/>
<path d="M2.72464 0C2.46152 0 2.23727 0.185643 2.19634 0.437645L0.00539225 13.913C-0.036153 14.1688 0.167651 14.4002 0.434698 14.4002H3.6837L4.49042 9.43793L5.36824 4.03784C5.38816 3.9158 5.45231 3.80464 5.54914 3.72435C5.64598 3.64406 5.76916 3.5999 5.89655 3.5998H10.5511C11.3981 3.5998 12.1707 3.79145 12.8286 4.12585C12.8737 1.86586 10.951 0 8.30762 0H2.72464Z" fill="#003087"/>
</svg>
