<svg width="74" height="40" viewBox="0 0 74 40" fill="none" xmlns="http://www.w3.org/2000/svg">
<g clip-path="url(#clip0_483_4430)">
<path fill-rule="evenodd" clip-rule="evenodd" d="M59.8527 32.5969C53.5084 37.2804 44.3135 39.7717 36.3906 39.7717C25.8133 39.8244 15.5974 35.9264 7.7437 28.8412C7.14518 28.3025 7.67641 27.5693 8.38715 27.9883C17.1187 32.975 27.0012 35.5952 37.0565 35.5896C44.5705 35.5485 52.0024 34.023 58.925 31.1006C60.0023 30.6442 60.9001 31.8114 59.8527 32.5969Z" fill="#BFBFBF"/>
<path fill-rule="evenodd" clip-rule="evenodd" d="M62.5004 29.5801C61.6924 28.5476 57.1436 29.0938 55.0937 29.3332C54.4802 29.408 54.3829 28.8694 54.9365 28.4803C58.5726 25.9291 64.5204 26.6623 65.2087 27.5152C65.897 28.3681 65.0292 34.3459 61.6251 37.1888C61.1013 37.6303 60.6001 37.3909 60.832 36.8148C61.5802 34.907 63.3159 30.62 62.5004 29.5801Z" fill="#BFBFBF"/>
<path fill-rule="evenodd" clip-rule="evenodd" d="M36.6589 9.36644C40.2276 9.36644 40.1977 12.4937 40.1154 13.8554H32.5366C32.6713 11.5062 33.801 9.36644 36.629 9.36644H36.6589ZM42.3823 15.9128C42.8312 15.9128 42.8911 14.4165 42.9135 13.7805C43.0856 9.23923 40.669 7.04713 36.7861 7.04713C35.7768 7.00804 34.7713 7.19233 33.8414 7.58679C32.9116 7.98124 32.0802 8.57611 31.4069 9.32899C30.2547 10.6981 29.5889 12.6359 29.5889 15.2544C29.5889 17.873 30.1724 19.7433 31.2947 21.1124C32.4169 22.4816 34.1975 23.4392 37.235 23.4392C38.8797 23.4399 40.5087 23.1197 42.0307 22.4965C42.5469 22.302 42.5544 22.0701 42.5544 21.5838V20.7234C42.5544 20.267 42.3599 20.08 41.8586 20.2371C40.5002 20.697 39.0802 20.9492 37.6465 20.9853C36.9181 21.0396 36.1864 20.9383 35.5002 20.688C34.8139 20.4378 34.1888 20.0443 33.6663 19.5338C32.9129 18.4723 32.5148 17.1995 32.5291 15.8978L42.3823 15.9128Z" fill="#BFBFBF"/>
<path fill-rule="evenodd" clip-rule="evenodd" d="M5.89546 7.48055V4.48793C5.89546 2.08636 8.3045 2.39312 9.8457 2.58764C10.5265 2.7223 10.7884 2.58763 10.7884 2.07141V1.07635C10.7884 0.582566 10.5864 0.402998 9.91305 0.223441C6.17228 -0.472343 2.85047 0.275843 2.85047 5.07152V7.57782L0.643402 7.83216C0.172065 7.87705 0 8.01921 0 8.49054V9.28359C0 9.71752 0.18703 9.88959 0.598515 9.88959H2.84298V22.3464C2.84298 22.7728 3.01505 22.9449 3.44898 22.9449H5.28946C5.71591 22.9449 5.88798 22.7728 5.88798 22.3464V9.88959H9.97292C10.3994 9.88959 10.5714 9.71752 10.5714 9.28359V8.10153C10.5714 7.6676 10.3769 7.49553 9.97292 7.49553L5.89546 7.48055Z" fill="#BFBFBF"/>
<path fill-rule="evenodd" clip-rule="evenodd" d="M15.6068 7.51729H13.8037C13.3698 7.51729 13.1977 7.68936 13.1977 8.11581V22.3307C13.1977 22.7572 13.3698 22.9293 13.8037 22.9293H15.6068C16.0407 22.9293 16.2128 22.7572 16.2128 22.3307V8.11581C16.2226 8.03418 16.2137 7.95141 16.1866 7.87379C16.1595 7.79616 16.115 7.72576 16.0565 7.66798C15.998 7.61021 15.9271 7.56661 15.8491 7.54049C15.7712 7.51437 15.6883 7.50642 15.6068 7.51729ZM14.7015 1.09067C14.4539 1.07693 14.2061 1.11508 13.974 1.20268C13.7419 1.29028 13.5307 1.42538 13.3539 1.59936C13.1771 1.77334 13.0386 1.98233 12.9473 2.21295C12.856 2.44357 12.8139 2.69074 12.8236 2.93859C12.854 3.42294 13.0678 3.87752 13.4216 4.20978C13.7753 4.54203 14.2424 4.72696 14.7277 4.72696C15.213 4.72696 15.6801 4.54203 16.0338 4.20978C16.3875 3.87752 16.6014 3.42294 16.6317 2.93859C16.6527 2.68342 16.6164 2.42679 16.5256 2.18742C16.4347 1.94805 16.2917 1.73198 16.1067 1.55493C15.9218 1.37788 15.6997 1.24432 15.4566 1.164C15.2135 1.08369 14.9555 1.05864 14.7015 1.09067Z" fill="#BFBFBF"/>
<path fill-rule="evenodd" clip-rule="evenodd" d="M67.5655 22.9429H65.6353C65.4478 22.9561 65.2616 22.9036 65.1086 22.7944C64.9557 22.6851 64.8456 22.526 64.7973 22.3443L59.2012 8.22667C59.0291 7.79274 59.1338 7.47852 59.5902 7.47852H61.6551C62.074 7.47852 62.2386 7.73288 62.4032 8.07703L66.5854 20.1523L70.7901 8.11443C70.9846 7.68798 71.1716 7.51591 71.5981 7.51591H73.446C73.9622 7.51591 74.082 7.78524 73.8949 8.21169L68.2913 22.3443C68.1416 22.6885 67.9621 22.9429 67.5431 22.9429H67.5655Z" fill="#BFBFBF"/>
<path fill-rule="evenodd" clip-rule="evenodd" d="M49.879 18.9883C49.879 22.5795 52.3554 23.1705 54.1434 23.1705C54.9909 23.1747 55.8363 23.0869 56.6647 22.9087C57.6074 22.6393 57.5924 22.4747 57.5924 22.0483V20.9485C57.5924 20.5146 57.3904 20.3799 56.9864 20.4772C56.3514 20.5957 55.709 20.6707 55.0637 20.7016C53.0736 20.5669 52.894 19.9535 52.894 17.9933V9.89076H56.8593C57.2857 9.89076 57.4578 9.71868 57.4578 9.28475V8.08023C57.4578 7.65379 57.2633 7.48172 56.8593 7.48172H52.894V3.74094C52.9039 3.65932 52.8949 3.57651 52.8678 3.49888C52.8407 3.42126 52.7963 3.35089 52.7378 3.29312C52.6793 3.23535 52.6083 3.1917 52.5304 3.16558C52.4524 3.13946 52.3695 3.13156 52.288 3.14243H51.076C50.6047 3.14243 50.3728 3.31449 50.3279 3.78583L49.9388 7.52661L47.6944 7.80342C47.2305 7.84831 47.0584 8.08024 47.0584 8.55157V9.25484C47.0476 9.33634 47.0555 9.41922 47.0816 9.49718C47.1077 9.57514 47.1514 9.64609 47.2091 9.70458C47.2669 9.76308 47.3373 9.80759 47.4149 9.83468C47.4925 9.86177 47.5753 9.8707 47.657 9.86085H49.9014V18.9584L49.879 18.9883Z" fill="#BFBFBF"/>
<path fill-rule="evenodd" clip-rule="evenodd" d="M23.0656 9.72418L22.8486 7.98096C22.7514 7.55452 22.5045 7.50218 22.1529 7.50218H20.7987C20.3723 7.50218 20.2002 7.67425 20.2002 8.10069V22.3156C20.2002 22.7421 20.3723 22.9142 20.7987 22.9142H22.6018C23.0282 22.9142 23.2003 22.7421 23.2003 22.3156V11.5647C24.4614 10.5346 26.0638 10.0165 27.6892 10.1132C28.2503 10.1132 29.0509 10.3377 29.0509 9.73167V7.97347C29.0509 7.57695 28.8115 7.35254 28.0558 7.35254C26.1555 7.35254 24.8762 7.83884 23.0582 9.73916L23.0656 9.72418Z" fill="#BFBFBF"/>
</g>
<defs>
<clipPath id="clip0_483_4430">
<rect width="74" height="39.7719" fill="white"/>
</clipPath>
</defs>
</svg>
