<svg width="157" height="25" viewBox="0 0 157 25" fill="none" xmlns="http://www.w3.org/2000/svg">
<g clip-path="url(#clip0_483_4467)">
<path d="M156.881 23.4852C156.881 23.3993 156.857 23.3134 156.842 23.2276C156.756 22.7028 156.647 22.1829 156.523 21.6677C156.123 20.0341 155.527 18.4548 154.748 16.9642C153.749 15.0406 152.462 13.2808 150.932 11.7455C150.579 11.3972 150.212 11.0538 149.835 10.7294C149.011 10.0288 148.135 9.39096 147.216 8.82127L147.24 8.77834C147.66 8.04689 148.083 7.31704 148.509 6.58877L149.749 4.45168L150.636 2.91564C150.707 2.79704 150.763 2.67054 150.803 2.53878C150.92 2.18699 150.93 1.80859 150.832 1.45116C150.808 1.36526 150.78 1.28083 150.746 1.19833C150.713 1.11724 150.67 1.03614 150.627 0.955042C150.461 0.683431 150.232 0.455956 149.959 0.291978C149.708 0.144484 149.428 0.0548502 149.138 0.0296176C149.018 0.0200754 148.896 0.0200754 148.776 0.0296176C148.676 0.0413378 148.577 0.0604695 148.48 0.0868589C148.113 0.17602 147.781 0.371904 147.526 0.64975C147.434 0.751279 147.353 0.861521 147.283 0.978902L146.395 2.51494L145.155 4.6568C144.732 5.38824 144.309 6.11809 143.886 6.84636L143.743 7.08488L143.552 7.00855C141.157 6.0972 138.616 5.6316 136.053 5.63472H135.82C133.534 5.65618 131.267 6.05094 129.108 6.80343C128.865 6.88452 128.631 6.97516 128.383 7.07056L128.254 6.84636L126.985 4.6568L125.745 2.51971C125.449 2.00452 125.149 1.4941 124.853 0.983677C124.787 0.861922 124.705 0.749593 124.609 0.64975C124.36 0.378533 124.04 0.183383 123.684 0.0868589C123.587 0.0624525 123.488 0.0449105 123.388 0.034378C123.268 0.0224831 123.146 0.0224831 123.026 0.034378C122.736 0.0581481 122.455 0.147899 122.205 0.296753C121.93 0.459885 121.701 0.68953 121.537 0.964592C121.491 1.04061 121.451 1.1204 121.418 1.20311C121.381 1.28632 121.351 1.37248 121.328 1.46071C121.234 1.81709 121.244 2.19259 121.356 2.54356C121.399 2.67455 121.455 2.80083 121.523 2.92042L122.415 4.45645L123.655 6.59353C124.075 7.32498 124.498 8.05483 124.924 8.7831C124.074 9.31162 123.263 9.89984 122.496 10.5433C122.019 10.9297 121.595 11.3304 121.17 11.755C119.637 13.2856 118.349 15.0444 117.354 16.9689C116.997 17.6471 116.679 18.3447 116.4 19.0583C116.068 19.9125 115.793 20.7873 115.575 21.6772C115.446 22.1876 115.341 22.7076 115.255 23.2371L115.212 23.4899C115.164 23.7952 115.126 24.1053 115.093 24.4106H156.99C156.966 24.1005 156.923 23.7905 156.881 23.4852ZM127.953 17.7608C127.262 18.7912 126.045 19.1919 125.187 18.6195C124.328 18.047 124.233 16.7734 124.915 15.7573C125.597 14.7412 126.823 14.3262 127.682 14.8938C128.54 15.4615 128.664 16.7209 127.953 17.756V17.7608ZM146.949 18.6195C146.109 19.1776 144.874 18.7912 144.187 17.756C143.5 16.7209 143.619 15.4281 144.459 14.87C145.298 14.3119 146.534 14.6983 147.221 15.7334C147.908 16.7686 147.788 18.0566 146.949 18.6147V18.6195Z" fill="#BFBFBF"/>
<path d="M94.3806 16.5568C94.3806 13.7471 96.408 11.5289 98.9697 11.5289C101.531 11.5289 103.401 13.6851 103.401 16.5568C103.401 19.4286 101.493 21.6515 98.9697 21.6515C96.4462 21.6515 94.3806 19.3999 94.3806 16.5568ZM85.5747 24.3992H89.1667V8.78125H85.5747V24.3992ZM85.0118 3.56254C85.0092 4.20079 85.258 4.8144 85.7044 5.27059C86.1507 5.72679 86.7588 5.98889 87.3969 6.00017C87.7106 5.99398 88.0199 5.92596 88.3072 5.80003C88.5946 5.6741 88.8542 5.49273 89.0713 5.2663C89.2885 5.03987 89.4588 4.77283 89.5726 4.48047C89.6864 4.18811 89.7413 3.87618 89.7344 3.56254C89.7244 2.94837 89.474 2.3626 89.037 1.93094C88.6 1.49928 88.0112 1.25614 87.3969 1.25372C86.7773 1.2534 86.182 1.4942 85.7368 1.92513C85.2916 2.35605 85.0316 2.94328 85.0118 3.56254ZM70.9442 16.5234C70.9442 13.709 73.0002 11.5242 75.6572 11.5242C78.3143 11.5242 80.3703 13.709 80.3703 16.5234C80.3703 19.3379 78.2761 21.6467 75.6572 21.6467C73.0383 21.6467 70.9442 19.3856 70.9442 16.5234ZM67.2901 16.5234C67.2901 18.7425 68.1716 20.8707 69.7408 22.4399C71.3099 24.009 73.4381 24.8905 75.6572 24.8905C77.8763 24.8905 80.0045 24.009 81.5736 22.4399C83.1428 20.8707 84.0243 18.7425 84.0243 16.5234C84.0243 11.8342 80.4037 8.2756 75.6572 8.2756C74.5603 8.24734 73.469 8.4404 72.4484 8.84325C71.4278 9.2461 70.4989 9.8505 69.7171 10.6203C68.9352 11.3901 68.3165 12.3096 67.8979 13.3238C67.4792 14.3381 67.2693 15.4263 67.2805 16.5234H67.2901ZM57.5873 24.3992H61.1794V16.2134C61.1794 12.9648 62.8967 11.5289 65.7684 11.5289C66.2091 11.5175 66.6495 11.5591 67.0802 11.653V8.4998C66.5118 8.34314 65.9238 8.26924 65.3343 8.28037C60.4638 8.28037 57.5873 11.3429 57.5873 16.2134V24.3992ZM43.1953 16.5568C43.1953 13.7471 45.2275 11.5289 47.7843 11.5289C50.3412 11.5289 52.2207 13.6851 52.2207 16.5568C52.2207 19.4286 50.3126 21.6515 47.7843 21.6515C45.2561 21.6515 43.1763 19.3856 43.1763 16.5568H43.1953ZM39.5461 16.5568C39.5461 21.0886 43.1667 24.9001 47.4409 24.9001C48.2653 24.9219 49.0844 24.7623 49.8403 24.4326C50.5962 24.1028 51.2704 23.611 51.8153 22.992H51.9679V24.3992H55.56V0.00390625H51.9679V10.0597H51.8153C50.8612 8.93391 49.2536 8.28037 47.4409 8.28037C43.1476 8.28037 39.5461 12.0585 39.5461 16.5568ZM23.8041 24.3992H27.3961V15.245C27.3961 13.0602 28.8606 11.5289 30.8928 11.5289C32.9249 11.5289 34.3894 13.0602 34.3894 15.245V24.3992H37.9766V15.245C37.9287 13.3974 37.1611 11.6417 35.8373 10.3518C34.5136 9.06204 32.7386 8.34022 30.8904 8.34022C29.0422 8.34022 27.2671 9.06204 25.9434 10.3518C24.6196 11.6417 23.8521 13.3974 23.8041 15.245V24.3992ZM7.32272 15.0256L11.1914 3.9394H11.3775L15.2509 15.0256H7.32272ZM0.0146484 24.3992H4.07412L6.10149 18.589H16.4674L18.4995 24.3992H22.5543L13.5337 0.00390625H9.04001L0.0146484 24.3992ZM98.6119 24.9001C99.4356 24.9218 100.254 24.7622 101.009 24.4324C101.764 24.1027 102.438 23.6109 102.981 22.992H103.139V24.3992H106.721V0.00390625H103.134V10.0597H102.977C102.023 8.93391 100.415 8.28037 98.6071 8.28037C94.3138 8.28037 90.7075 12.0585 90.7075 16.5568C90.7075 21.0552 94.3281 24.9001 98.6071 24.9001H98.6119Z" fill="#BFBFBF"/>
</g>
<defs>
<clipPath id="clip0_483_4467">
<rect width="157" height="24.8962" fill="white"/>
</clipPath>
</defs>
</svg>
