<svg width="80" height="36" viewBox="0 0 80 36" fill="none" xmlns="http://www.w3.org/2000/svg">
<g clip-path="url(#clip0_483_4425)">
<path d="M70.8665 20.2279H75.1521V24.217C74.3659 24.5177 72.8224 24.817 71.3589 24.817C66.6181 24.817 65.0414 22.4114 65.0414 17.5243C65.0414 12.8607 66.5422 10.1158 71.2789 10.1158C73.9176 10.1158 75.417 10.9434 76.6584 12.5228L79.933 9.51441C77.9329 6.66328 74.4432 5.7998 71.1658 5.7998C63.7986 5.7998 59.924 9.81511 59.924 17.4857C59.924 25.1177 63.4248 29.2544 71.1272 29.2544C74.6639 29.2544 78.1191 28.3551 80.002 27.035V15.9822H70.8665V20.2279ZM48.3829 24.4763H59.2895V28.9137H43.1221V6.13085H48.3871L48.3829 24.4763Z" fill="#BFBFBF"/>
<path d="M30.0757 5.16097C28.4399 3.52477 26.4978 2.22684 24.3603 1.34131C22.2228 0.455779 19.9318 0 17.6181 0C15.3044 0 13.0134 0.455779 10.8759 1.34131C8.73836 2.22684 6.79623 3.52477 5.1604 5.16097C3.52436 6.7969 2.22658 8.73906 1.34115 10.8766C0.455724 13.014 0 15.305 0 17.6186C0 19.9323 0.455724 22.2232 1.34115 24.3607C2.22658 26.4982 3.52436 28.4404 5.1604 30.0763C6.79633 31.7124 8.73848 33.0101 10.876 33.8956C13.0135 34.781 15.3044 35.2367 17.6181 35.2367C19.9317 35.2367 22.2227 34.781 24.3602 33.8956C26.4977 33.0101 28.4398 31.7124 30.0757 30.0763C31.7118 28.4404 33.0096 26.4982 33.895 24.3607C34.7804 22.2232 35.2361 19.9323 35.2361 17.6186C35.2361 15.305 34.7804 13.014 33.895 10.8766C33.0096 8.73906 31.7118 6.7969 30.0757 5.16097ZM21.9306 25.0334H18.3305V25.0417H16.9939V10.1777H18.325V23.7051H21.9251L21.9306 25.0334ZM17.6974 32.0929C9.66401 32.0929 3.15068 25.6196 3.15068 17.6235C3.15068 9.62734 9.66263 3.15401 17.696 3.15401C17.9075 3.15401 18.1185 3.15815 18.3291 3.16642V4.48371C18.1181 4.47544 17.9084 4.46992 17.6974 4.46992C10.3964 4.46992 4.47486 10.3598 4.47486 17.6221C4.47486 24.8844 10.3951 30.7757 17.6974 30.7757C24.7983 30.7757 30.5999 25.203 30.9075 18.2138V18.1766H21.9417V16.8497H32.2137C32.2275 17.1062 32.2358 17.3628 32.2358 17.6235C32.2427 25.6155 25.7294 32.0929 17.6974 32.0929ZM12.2724 14.182C12.0051 14.1825 11.7403 14.1305 11.493 14.0289C11.2452 13.9271 11.0197 13.7776 10.8296 13.5889C10.6405 13.3995 10.4901 13.175 10.3868 12.9281C10.2851 12.681 10.2335 12.4161 10.2351 12.1488C10.2349 11.7471 10.3539 11.3544 10.5771 11.0205C10.7994 10.6859 11.1164 10.4251 11.4875 10.2715C11.8585 10.1167 12.2671 10.0759 12.6614 10.1543C13.0553 10.2315 13.4176 10.4234 13.7028 10.706C13.9874 10.9895 14.1817 11.3509 14.2614 11.7447C14.3415 12.1383 14.3026 12.547 14.1497 12.9185C13.9978 13.2906 13.7385 13.609 13.4048 13.833C13.072 14.0582 12.6797 14.1792 12.2779 14.1806L12.2724 14.182Z" fill="#BFBFBF"/>
</g>
<defs>
<clipPath id="clip0_483_4425">
<rect width="80" height="35.2357" fill="white"/>
</clipPath>
</defs>
</svg>
