<svg width="174" height="27" viewBox="0 0 174 27" fill="none" xmlns="http://www.w3.org/2000/svg">
<g clip-path="url(#clip0_483_4478)">
<path d="M11.5501 18.6925C11.7429 19.2876 11.7586 19.926 11.5954 20.5299C11.39 21.3616 10.8298 22.2073 9.15936 22.2073C7.60728 22.2073 6.66072 21.306 6.66072 19.9522V17.5406H0V19.4581C0 25.0052 4.36044 26.6791 9.048 26.6791C13.5442 26.6791 17.2469 25.1479 17.835 20.9997C18.058 19.6487 18.0509 18.2698 17.8141 16.9211C16.7701 11.7011 7.3254 10.1595 6.61896 7.24675C6.52158 6.81673 6.51447 6.37118 6.59808 5.93827C6.77208 5.13787 7.31496 4.26787 8.86704 4.26787C10.3286 4.26787 11.1743 5.16919 11.1743 6.52291V8.06455H17.3722V6.32455C17.3722 0.906187 12.5002 0.0605469 8.99232 0.0605469C4.56576 0.0605469 0.95004 1.52911 0.29232 5.58679C0.0936563 6.69707 0.113753 7.83546 0.35148 8.93803C1.43028 14.0154 10.266 15.4874 11.5501 18.7064" fill="#BFBFBF"/>
<path d="M26.6252 0.839964L22.0107 25.708H28.7341L32.1375 3.14024H32.2767L35.5862 25.708H42.2748L37.6916 0.833008L26.6252 0.839964ZM64.2092 0.839964L61.1433 19.8512H60.9972L57.9383 0.839964H47.7871L47.2373 25.708H53.4595L53.6126 3.34905H53.7518L57.9035 25.708H64.2162L68.3748 3.35601H68.507L68.6671 25.708H74.8824L74.336 0.833008L64.2092 0.839964Z" fill="#BFBFBF"/>
<path d="M92.4007 18.6411C92.5935 19.2375 92.6092 19.877 92.4459 20.4821C92.2441 21.3103 91.6838 22.1559 90.0099 22.1559C88.4579 22.1559 87.5113 21.2581 87.5113 19.9044V17.4927H80.8506V19.4067C80.8506 24.9539 85.2145 26.6312 89.8986 26.6312C94.3947 26.6312 98.0975 25.1 98.6891 20.9484C98.9099 19.5983 98.9016 18.2206 98.6647 16.8733C97.6207 11.6533 88.1795 10.1117 87.473 7.19889C87.3729 6.76931 87.3646 6.32342 87.4487 5.89041C87.6227 5.09001 88.1655 4.22001 89.7176 4.22001C91.1792 4.22001 92.0249 5.11785 92.0249 6.47505V8.0167H98.2332V6.2767C98.2332 0.858335 93.3612 0.0126953 89.8534 0.0126953C85.4268 0.0126953 81.8146 1.47777 81.1534 5.53545C80.9547 6.64573 80.9748 7.78412 81.2125 8.88669C82.2913 13.9675 91.127 15.4395 92.4111 18.6551" fill="#BFBFBF"/>
<path d="M113.274 21.9837C115.014 21.9837 115.536 20.7935 115.658 20.1845C115.705 19.8701 115.725 19.5523 115.717 19.2345V0.842661H122.009V18.6672C122.009 19.2136 121.992 19.7565 121.953 20.3028C121.515 24.9451 117.847 26.452 113.274 26.452C108.701 26.452 105.03 24.9451 104.592 20.3028C104.574 20.0557 104.529 19.1231 104.536 18.6672V0.835705H110.828V19.2275C110.818 19.5476 110.838 19.868 110.887 20.1845C111.005 20.7935 111.541 21.9837 113.274 21.9837ZM143.686 0.842661L144.034 20.362H143.898L138.156 0.842661H128.941V25.4463H135.055L134.707 5.26226H134.843L140.978 25.4463H149.839V0.842661H143.686ZM165.144 21.7227C166.939 21.7227 167.58 20.5847 167.68 19.9131C167.729 19.6047 167.749 19.2925 167.74 18.9804V15.3612H165.189V11.742H174V18.4097C174.001 18.9561 173.972 19.5021 173.913 20.0453C173.503 24.5693 169.574 26.1945 165.164 26.1945C160.755 26.1945 156.833 24.5763 156.419 20.0453C156.35 19.2171 156.332 18.876 156.332 18.4097V7.94882C156.332 7.50338 156.391 6.72038 156.437 6.31322C156.99 1.65698 160.759 0.164062 165.164 0.164062C169.57 0.164062 173.44 1.64654 173.896 6.30626C173.945 6.84999 173.965 7.396 173.955 7.94186V8.77706H167.691V7.38506C167.691 7.06799 167.665 6.75143 167.614 6.4385C167.496 5.88866 167.03 4.6289 165.126 4.6289C163.317 4.6289 162.784 5.82602 162.652 6.4385C162.575 6.82451 162.538 7.21763 162.544 7.61126V18.9769C162.54 19.2935 162.56 19.6099 162.603 19.9235C162.721 20.5882 163.351 21.7261 165.151 21.7261" fill="#BFBFBF"/>
</g>
<defs>
<clipPath id="clip0_483_4478">
<rect width="174" height="26.6777" fill="white"/>
</clipPath>
</defs>
</svg>
