<svg width="114" height="26" viewBox="0 0 114 26" fill="none" xmlns="http://www.w3.org/2000/svg">
<g clip-path="url(#clip0_483_4447)">
<path fill-rule="evenodd" clip-rule="evenodd" d="M108.96 7.32046C108.96 5.338 107.154 3.50856 105.064 3.50856H93.0092C90.9635 3.50856 89.1103 5.338 89.1103 7.32046V18.077C89.1103 20.0581 90.921 21.8808 93.0092 21.8808H105.064C107.154 21.8808 108.96 20.0581 108.96 18.077V7.32046ZM113.258 7.32046V18.1522C113.258 22.1479 109.552 25.3948 105.064 25.3948H93.0092C88.4817 25.3948 84.8149 22.1104 84.8149 18.077V7.32046C84.8149 3.28441 88.4817 0 93.0092 0H105.064C109.594 0 113.258 3.10187 113.258 7.32046ZM75.2828 25.3948H79.6192V0H75.2828V25.3948ZM49.0876 16.8797L62.9136 11.8733C68.9404 9.66934 70.0843 5.71382 70.0843 0H43.3341V3.50856H65.7125C65.4364 5.89771 63.8154 7.50434 61.8476 8.21572L48.1801 13.2222C42.0316 15.461 41.563 19.0085 41.563 25.3948H70.0843V21.8808H45.9319C46.0905 19.0461 46.9583 17.6663 49.0876 16.8797ZM32.331 25.3948H36.6646V0H32.331V25.3948ZM23.0099 0.0389243H27.2613V9.10963C27.2613 10.4612 26.6299 11.5793 25.9617 12.6571L19.5795 22.858C17.2577 26.592 10.0488 26.4793 7.76103 22.858L1.1878 12.4356C0.668224 11.6545 0 10.3807 0 9.10963V0.0389243H4.29391V9.48277C4.29391 9.63175 4.41283 9.97402 4.45247 10.0438L11.1106 20.8044C12.0564 22.3345 15.4046 22.3345 16.3503 20.8044L22.7692 10.2317C22.8895 10.0062 23.0099 9.59954 23.0099 9.48277V0.0389243Z" fill="#BFBFBF"/>
</g>
<defs>
<clipPath id="clip0_483_4447">
<rect width="114" height="25.618" fill="white"/>
</clipPath>
</defs>
</svg>
