<svg width="133" height="25" viewBox="0 0 133 25" fill="none" xmlns="http://www.w3.org/2000/svg">
<g clip-path="url(#clip0_483_4439)">
<mask id="mask0_483_4439" style="mask-type:luminance" maskUnits="userSpaceOnUse" x="-75" y="-75" width="281" height="199">
<path d="M-74.9473 -74.0647H205.116V123.961H-74.9473V-74.0647Z" fill="white"/>
</mask>
<g mask="url(#mask0_483_4439)">
<path d="M45.1167 0.488449H37.9712V9.79294H30.5329V0.488449H23.3874V23.8977H30.5329V14.6897H37.9712V23.8977H45.1167V0.488449ZM69.973 19.1939V0.488449H62.8275V23.8977H75.748L76.8225 19.1939H69.973ZM57.5448 0.488449H50.3993V23.8977H57.5448V0.488449ZM86.5129 0.488449H79.3707V23.8977H86.5129V0.488449ZM121.742 6.46301C121.742 5.18893 123.016 4.60013 125.068 4.60013C127.32 4.60013 129.769 5.09246 131.432 5.78107L130.846 0.684717C128.984 0.292179 127.32 -0.00056076 124.29 -0.00056076C118.515 -0.00056076 114.599 2.27816 114.599 7.05183C114.599 15.2785 125.76 13.6152 125.76 17.4341C125.76 18.9012 124.679 19.6829 122.038 19.6829C119.692 19.6829 116.066 18.9012 113.914 17.8233L114.699 23.2124C116.851 23.9975 119.785 24.3867 122.137 24.3867C128.105 24.3867 132.999 22.4274 132.999 16.5493C132.999 8.71845 121.742 10.1855 121.742 6.46301ZM101.586 18.3157C108.236 18.3157 112.447 14.886 112.447 8.9114C112.447 2.35135 107.946 -0.00056076 100.604 -0.00056076C97.7667 -0.00056076 94.3403 0.195709 91.8953 0.488449V23.8977H99.0408V18.3157H101.586ZM105.401 9.01119C105.401 12.045 103.934 14.1042 100.212 14.1042H99.0408V4.43047C99.4567 4.40718 99.8459 4.40718 100.212 4.40718C103.735 4.40718 105.401 6.07048 105.401 9.01119ZM9.68843 18.3157C16.3416 18.3157 20.5498 14.886 20.5498 8.9114C20.5498 2.35135 16.0489 -0.00056076 8.71041 -0.00056076C5.86949 -0.00056076 2.44642 0.195709 -0.00195312 0.488449V23.8977H7.14358V18.3157H9.68843ZM13.5074 9.01119C13.5074 12.045 12.037 14.1042 8.31787 14.1042H7.14358V4.43047C7.55941 4.40718 7.95194 4.40718 8.31787 4.40718C11.8407 4.40718 13.5074 6.07048 13.5074 9.01119Z" fill="#BFBFBF"/>
</g>
</g>
<defs>
<clipPath id="clip0_483_4439">
<rect width="133" height="24.3869" fill="white"/>
</clipPath>
</defs>
</svg>
