<svg width="43" height="43" viewBox="0 0 43 43" fill="none" xmlns="http://www.w3.org/2000/svg">
<g clip-path="url(#clip0_483_4470)">
<path d="M38.5186 4.49316C34.4613 0.451836 28.6286 0 21.5 0C14.3714 0 8.52105 0.456875 4.46797 4.50912C0.414883 8.56137 0 14.3916 0 21.521C0 28.6504 0.411523 34.4857 4.46797 38.5371C8.52441 42.5885 14.3638 43 21.5 43C28.6362 43 34.4773 42.5902 38.532 38.5371C42.5868 34.484 43 28.6513 43 21.521C43 14.3907 42.5834 8.54373 38.5186 4.49316ZM19.9018 29.4911C19.9009 29.5617 19.8721 29.629 19.8218 29.6784C19.7714 29.7278 19.7036 29.7553 19.633 29.7548H15.9738C15.9029 29.7557 15.8345 29.7285 15.7837 29.679C15.7328 29.6296 15.7037 29.562 15.7026 29.4911V19.9169C15.7029 19.8817 15.7102 19.8469 15.724 19.8145C15.7378 19.7821 15.7579 19.7528 15.7832 19.7282C15.8084 19.7036 15.8382 19.6842 15.8709 19.6712C15.9036 19.6582 15.9386 19.6518 15.9738 19.6523H19.6347C19.7052 19.6519 19.7731 19.6794 19.8235 19.7288C19.8738 19.7782 19.9026 19.8455 19.9035 19.9161L19.9018 29.4911ZM27.069 29.4911C27.0679 29.5619 27.0388 29.6293 26.9882 29.6787C26.9375 29.7281 26.8693 29.7555 26.7986 29.7548H23.3141C23.2432 29.7555 23.175 29.7282 23.1242 29.6788C23.0734 29.6294 23.0441 29.562 23.0428 29.4911V21.2329C23.0428 19.7909 22.9588 18.3094 22.213 17.5628C21.5731 16.9212 20.3788 16.7742 19.1367 16.744H12.8202C12.7497 16.7435 12.6818 16.771 12.6315 16.8204C12.5811 16.8698 12.5524 16.9371 12.5515 17.0077V29.4911C12.5499 29.5622 12.5204 29.6297 12.4693 29.6791C12.4181 29.7285 12.3496 29.7557 12.2785 29.7548H8.79232C8.72178 29.7553 8.65392 29.7278 8.60357 29.6784C8.55322 29.629 8.52446 29.5617 8.52357 29.4911V13.5862C8.52368 13.551 8.53073 13.5162 8.5443 13.4838C8.55788 13.4514 8.57772 13.422 8.60269 13.3973C8.62765 13.3725 8.65726 13.353 8.6898 13.3397C8.72234 13.3264 8.75718 13.3197 8.79232 13.3199H18.8528C21.4815 13.3199 24.2278 13.4409 25.5867 14.7972C26.9195 16.1326 27.064 18.7907 27.069 21.3723V29.4911ZM34.2471 29.4911C34.2458 29.5618 34.2167 29.6291 34.1661 29.6785C34.1155 29.7279 34.0474 29.7553 33.9767 29.7548H30.4914C30.4205 29.7555 30.3523 29.7282 30.3015 29.6788C30.2507 29.6294 30.2214 29.562 30.2201 29.4911V13.5862C30.2204 13.5509 30.2277 13.516 30.2415 13.4835C30.2553 13.451 30.2754 13.4216 30.3006 13.3969C30.3258 13.3721 30.3556 13.3526 30.3883 13.3394C30.4211 13.3262 30.4561 13.3196 30.4914 13.3199H33.9767C34.0478 13.3197 34.1161 13.3475 34.1667 13.3974C34.2174 13.4473 34.2463 13.5151 34.2471 13.5862V29.4911Z" fill="#BFBFBF"/>
</g>
<defs>
<clipPath id="clip0_483_4470">
<rect width="43" height="43" fill="white"/>
</clipPath>
</defs>
</svg>
