<svg width="90" height="35" viewBox="0 0 90 35" fill="none" xmlns="http://www.w3.org/2000/svg">
<g clip-path="url(#clip0_483_4428)">
<path d="M18.8525 5.47742C20.1239 3.94677 20.7539 1.98366 20.6107 -0.000976562C18.6622 0.1871 16.8635 1.12659 15.5959 2.61835C14.9646 3.33289 14.4808 4.16512 14.1722 5.06723C13.8637 5.96933 13.7364 6.92352 13.7977 7.87497C14.7684 7.894 15.7302 7.68734 16.6074 7.27128C17.4846 6.85523 18.2531 6.24114 18.8525 5.47742ZM20.4909 8.2366C17.6937 8.07477 15.3361 9.83497 13.9975 9.83497C12.6589 9.83497 10.621 8.32451 8.4232 8.36447C6.98416 8.40502 5.58097 8.82254 4.35384 9.57529C3.12671 10.328 2.11864 11.3897 1.43035 12.6541C-1.56659 17.8488 0.631166 25.5869 3.54818 29.8165C4.96673 31.8265 6.665 34.222 8.92269 34.1441C11.1804 34.0662 11.8797 32.7455 14.457 32.7455C17.0344 32.7455 17.7936 34.1441 20.0313 34.0942C22.269 34.0442 23.8275 32.0802 25.226 29.8985C26.2348 28.4082 27.0222 26.7796 27.5636 25.0634C26.2201 24.4686 25.0772 23.4981 24.2726 22.2688C23.4679 21.0395 23.0358 19.6037 23.0283 18.1345C23.0448 16.8308 23.3882 15.5522 24.027 14.4156C24.6658 13.2791 25.5795 12.321 26.6845 11.6291C25.9824 10.6253 25.0585 9.79665 23.9843 9.20761C22.9102 8.61857 21.7148 8.28494 20.4909 8.23261M38.3326 4.20472V9.90889H42.888V13.675H38.3326V27.1712C38.3326 29.1852 39.2317 30.2121 41.2297 30.2121C41.7776 30.2022 42.3245 30.1622 42.868 30.0923V33.8884C41.9764 34.0328 41.0739 34.0996 40.1707 34.0882C35.4556 34.0882 33.6374 32.256 33.6374 27.6627V13.7649H30.0611V9.98881H33.5375V4.20872L38.3326 4.20472ZM58.8117 33.8804H53.8168L45.4254 9.98881H50.4003L56.2943 29.1852H56.4141L62.3081 9.98881H67.1831L58.8117 33.8804ZM80.7493 33.8804H76.4337V24.0904H67.1632V19.7788H76.4137V9.98881H80.7293V19.7788H89.9998V24.0904H80.7493V33.8804Z" fill="#BFBFBF"/>
</g>
<defs>
<clipPath id="clip0_483_4428">
<rect width="90" height="34.1471" fill="white"/>
</clipPath>
</defs>
</svg>
