<svg width="126" height="30" viewBox="0 0 126 30" fill="none" xmlns="http://www.w3.org/2000/svg">
<g clip-path="url(#clip0_483_4483)">
<path d="M14.5393 27.9258C14.2071 27.9266 13.881 27.8374 13.5955 27.6676C13.3101 27.4978 13.076 27.2537 12.9183 26.9614L0.225493 3.66076C-0.00956505 3.23083 -0.0642088 2.72514 0.0735831 2.25492C0.211375 1.78471 0.530315 1.38849 0.960241 1.15343C1.39017 0.918372 1.89586 0.863728 2.36607 1.00152C2.83629 1.13931 3.23251 1.45825 3.46757 1.88818L14.4888 22.0937L25.2666 0.969743C25.3794 0.753549 25.5336 0.561683 25.7205 0.405101C25.9075 0.248519 26.1234 0.130288 26.356 0.0571563C26.5886 -0.0159752 26.8334 -0.0425726 27.0763 -0.02112C27.3192 0.000332695 27.5554 0.0694166 27.7716 0.182187C27.9878 0.294958 28.1797 0.449204 28.3363 0.636125C28.4929 0.823045 28.6111 1.03898 28.6842 1.27159C28.7574 1.5042 28.784 1.74894 28.7625 1.99184C28.741 2.23473 28.672 2.47102 28.5592 2.68721L16.1833 26.9155C16.0311 27.2155 15.7994 27.4679 15.5136 27.6453C15.2277 27.8226 14.8986 27.9181 14.5623 27.9212L14.5393 27.9258Z" fill="#BFBFBF"/>
<path d="M33.1503 28.8486C32.6632 28.8486 32.196 28.6551 31.8515 28.3106C31.507 27.9661 31.3135 27.4989 31.3135 27.0117V1.84663C31.3135 1.35947 31.507 0.89225 31.8515 0.547771C32.196 0.203291 32.6632 0.00976562 33.1503 0.00976562C33.6375 0.00976562 34.1047 0.203291 34.4492 0.547771C34.7937 0.89225 34.9872 1.35947 34.9872 1.84663V26.998C34.989 27.2403 34.9429 27.4807 34.8514 27.7051C34.7599 27.9296 34.6249 28.1337 34.4541 28.3057C34.2834 28.4778 34.0802 28.6143 33.8565 28.7075C33.6327 28.8006 33.3927 28.8486 33.1503 28.8486Z" fill="#BFBFBF"/>
<path d="M56.8607 28.8487H43.6123C43.1251 28.8487 42.6579 28.6551 42.3134 28.3107C41.9689 27.9662 41.7754 27.499 41.7754 27.0118V1.8467C41.7754 1.35953 41.9689 0.892312 42.3134 0.547832C42.6579 0.203352 43.1251 0.00982719 43.6123 0.00982719H55.4509C55.606 0.00850159 55.7605 0.0285893 55.9101 0.0695242C59.9191 1.07521 67.3216 5.40104 66.6925 14.5624C65.9256 25.6847 57.8204 28.6328 57.476 28.7522C57.2774 28.8171 57.0696 28.8497 56.8607 28.8487ZM45.4583 25.1749H56.4795C57.6689 24.6376 62.4494 22.0201 62.982 14.3236C63.5193 6.54449 56.5071 4.10604 55.1754 3.71571H45.4583V25.1749Z" fill="#BFBFBF"/>
<path d="M93.6845 28.8478C93.3424 28.8489 93.0069 28.7545 92.7156 28.5752C92.4243 28.3959 92.1889 28.1388 92.0359 27.8329L81.0514 6.0936L68.9969 27.8972C68.7595 28.3235 68.3624 28.638 67.893 28.7715C67.4236 28.9049 66.9205 28.8465 66.4942 28.609C66.0679 28.3715 65.7535 27.9744 65.62 27.5051C65.4865 27.0357 65.5449 26.5326 65.7824 26.1063L79.5314 1.24885C79.6932 0.95497 79.9324 0.711004 80.223 0.543429C80.5136 0.375854 80.8446 0.29107 81.18 0.298275C81.5154 0.305661 81.8426 0.403411 82.1271 0.581218C82.4116 0.759026 82.6428 1.0103 82.7964 1.30855L95.356 26.166C95.4664 26.3822 95.5329 26.6182 95.5515 26.8603C95.5702 27.1024 95.5406 27.3458 95.4646 27.5764C95.3886 27.807 95.2676 28.0202 95.1087 28.2038C94.9497 28.3873 94.756 28.5376 94.5386 28.6458C94.2744 28.7811 93.9813 28.8505 93.6845 28.8478Z" fill="#BFBFBF"/>
<path d="M124.149 29.4861C123.808 29.4863 123.473 29.3915 123.183 29.2122C122.893 29.033 122.658 28.7764 122.505 28.4712L111.516 6.72725L99.4618 28.5217C99.3442 28.7328 99.1862 28.9186 98.9968 29.0686C98.8073 29.2186 98.5902 29.3298 98.3578 29.3959C98.1254 29.462 97.8823 29.4817 97.6423 29.4538C97.4023 29.426 97.1701 29.3511 96.9591 29.2335C96.748 29.1159 96.5621 28.9579 96.4121 28.7685C96.2621 28.579 96.1509 28.3619 96.0848 28.1295C96.0187 27.8971 95.9991 27.654 96.0269 27.414C96.0548 27.174 96.1297 26.9418 96.2473 26.7308L109.978 1.8871C110.15 1.60232 110.391 1.36578 110.68 1.19955C110.968 1.03333 111.294 0.942837 111.626 0.936523C111.963 0.941349 112.292 1.03856 112.577 1.21753C112.862 1.39651 113.092 1.65037 113.243 1.95139L125.802 26.8088C125.913 27.0251 125.979 27.2611 125.998 27.5031C126.017 27.7452 125.987 27.9886 125.911 28.2192C125.835 28.4498 125.714 28.6631 125.555 28.8466C125.396 29.0302 125.202 29.1804 124.985 29.2886C124.725 29.4165 124.439 29.484 124.149 29.4861Z" fill="#BFBFBF"/>
</g>
<defs>
<clipPath id="clip0_483_4483">
<rect width="126" height="29.4863" fill="white"/>
</clipPath>
</defs>
</svg>
