<svg width="150" height="24" viewBox="0 0 150 24" fill="none" xmlns="http://www.w3.org/2000/svg">
<g clip-path="url(#clip0_483_4407)">
<path d="M27.0422 6.419e-06L25.2437 23.6324H17.8997L18.7133 13.1676H8.17904L7.36542 23.6324H0L1.81994 0H7.25836C7.85788 0 9.07831 0.0648699 9.0569 1.51352L8.52162 8.25946H19.0559L19.6982 0L27.0422 6.419e-06Z" fill="#BFBFBF"/>
<path d="M120.545 13.4054C123.821 14.8973 127.161 16.3243 126.669 19.5459C126.112 23.0703 120.995 23.7405 116.798 23.7405C116.477 23.7405 116.134 23.7189 115.792 23.7189C110.032 23.5459 107.142 23.0919 107.142 23.0919L107.377 19.2649C107.377 19.2649 111.36 20 115.128 20.1297C117.269 20.1946 118.832 20.0649 118.875 19.3297C118.918 18.6595 117.847 18.3135 115.578 17.4054L113.586 16.6054C111.188 15.5892 107.27 14.1405 107.463 10.8324C107.655 7.58919 111.552 6.57297 113.843 6.24865C115.192 6.05405 116.605 5.98919 118.575 6.01081C122.9 6.07567 126.54 6.85405 126.54 6.85405L126.197 10.4216C126.197 10.4216 122.343 9.57837 118.468 9.57837C116.006 9.6 115.171 9.88108 115.042 10.2919C114.807 11.0486 116.177 11.5892 117.976 12.3243L120.545 13.4054Z" fill="#BFBFBF"/>
<path d="M36.0773 0C37.2335 0 37.6403 0.497299 37.5546 1.51352C37.5332 1.94595 37.3405 4.51892 37.3405 4.51892H30.1464L30.489 0H36.0773ZM37.212 6.44324L35.8846 23.6324H28.6904L29.9965 6.44324H37.212Z" fill="#BFBFBF"/>
<path d="M98.3627 12.3241C98.5126 9.85927 96.6498 9.88089 96.0075 9.85927C94.1233 9.77278 91.7253 10.1187 91.7253 10.1187L90.9116 23.589H84.21L85.2591 6.9836C85.2591 6.9836 90.5691 6.35657 94.7442 6.20522C95.2367 6.18359 95.7291 6.18359 96.1788 6.18359C97.9345 6.18359 99.1977 6.2917 99.369 6.31332C101.788 6.55116 105.428 6.94035 105.107 12.1512L104.379 23.6106H97.6561C97.6561 23.6106 98.17 15.3728 98.3627 12.3241Z" fill="#BFBFBF"/>
<path d="M149.813 16.4323C151.248 8.15123 143.99 6.52961 142.277 6.27015C141.656 6.18367 140.971 6.11881 140.243 6.11881C132.599 6.05394 128.788 10.9188 128.466 14.9404C128.167 18.5945 129.537 23.9999 140.756 23.9999C144.867 23.9999 147.522 23.3728 148.657 23.0485C148.786 22.2918 149.021 20.7134 149.214 19.5026C148.657 19.6107 145.296 20.3458 141.634 20.3458H141.292C136.196 20.1512 135.168 17.6431 135.168 16.4756V16.4107L149.813 16.4323ZM135.447 13.1458C135.768 11.3296 137.159 9.49177 140.093 9.47015C144.375 9.51339 144.097 13.1458 144.097 13.1458H135.447Z" fill="#BFBFBF"/>
<path d="M82.0262 16.4323C83.4821 8.15123 76.2023 6.52961 74.4895 6.27015C73.8685 6.18367 73.1834 6.11881 72.4554 6.11881C64.8116 6.05394 60.9791 10.9188 60.6579 14.9404C60.3581 18.5945 61.7284 23.9999 72.9479 23.9999C77.0802 23.9999 79.7138 23.3728 80.8486 23.0485C80.977 22.2918 81.2126 20.7134 81.4053 19.5026C80.8486 19.6107 77.487 20.3458 73.8257 20.3458H73.4831C68.3873 20.1512 67.3596 17.6431 67.3596 16.4756V16.4107L82.0262 16.4323ZM67.6379 13.1458C67.9591 11.3296 69.3508 9.49177 72.2841 9.47015C76.5663 9.51339 76.288 13.1458 76.288 13.1458H67.6379Z" fill="#BFBFBF"/>
<path d="M52.6495 13.4051L50.1016 12.3457C48.3031 11.6322 46.9328 11.0916 47.1683 10.3349C47.2967 9.90243 48.1318 9.62135 50.5941 9.62135C54.4695 9.62135 58.3235 10.4646 58.3235 10.4646L58.666 6.89703C58.666 6.89703 55.0262 6.09702 50.7011 6.05378C48.7313 6.03215 47.3182 6.09702 45.9693 6.29161C43.6569 6.61594 39.7814 7.63216 39.5888 10.8754C39.396 14.2051 43.3143 15.6538 45.7123 16.6484L47.7036 17.4484C49.9731 18.3565 51.0437 18.7024 51.0009 19.3727C50.958 20.1294 49.395 20.2376 47.2539 20.1727C43.4856 20.043 39.5031 19.3078 39.5031 19.3078L39.2676 23.1349C39.2676 23.1349 42.1581 23.6105 47.9177 23.7619H48.924C53.1206 23.7619 58.2378 23.0916 58.7945 19.5673C59.3084 16.324 55.9254 14.897 52.6495 13.4051Z" fill="#BFBFBF"/>
</g>
<defs>
<clipPath id="clip0_483_4407">
<rect width="150" height="24" fill="white"/>
</clipPath>
</defs>
</svg>
